<svg version="1.0" xmlns="http://www.w3.org/2000/svg"
 width="1080.000000pt" height="1080.000000pt" viewBox="0 0 1080.000000 1080.000000"
 preserveAspectRatio="xMidYMid meet">

<g transform="translate(0.000000,1080.000000) scale(0.100000,-0.100000)"
fill="#000000" stroke="none">
<path d="M5590 9083 c-55 -53 -100 -102 -100 -108 0 -5 -11 -19 -25 -29 -14
-10 -25 -27 -25 -37 0 -10 -6 -22 -13 -26 -7 -4 -25 -33 -40 -63 -30 -62 -48
-92 -60 -101 -4 -3 -7 -10 -6 -15 2 -9 -14 -54 -33 -91 -6 -13 -9 -26 -5 -29
3 -4 -1 -13 -9 -22 -9 -8 -13 -23 -11 -33 3 -11 1 -22 -4 -25 -5 -3 -9 -23 -9
-44 0 -21 -5 -42 -10 -45 -6 -3 -7 -17 -4 -30 3 -12 1 -26 -5 -29 -14 -9 -15
-262 -1 -271 6 -3 10 -26 10 -51 0 -24 5 -44 11 -44 5 0 7 -5 3 -11 -3 -6 -1
-22 5 -35 6 -13 15 -34 20 -46 5 -13 20 -45 32 -73 13 -27 24 -52 25 -55 4
-19 28 -62 58 -105 20 -27 36 -58 36 -67 0 -10 4 -18 9 -18 5 0 7 -9 4 -20 -3
-11 -1 -20 3 -20 5 0 15 -15 23 -32 7 -18 19 -47 27 -65 8 -17 14 -36 14 -42
0 -20 24 -52 75 -102 58 -56 89 -65 79 -21 -4 15 -10 28 -13 30 -3 1 -6 102
-6 224 0 170 3 222 13 226 9 3 11 17 6 52 -4 27 -3 57 2 67 4 10 9 35 10 56 1
21 7 44 13 51 6 7 9 21 5 30 -3 9 -1 23 6 31 6 8 9 23 5 35 -4 11 -2 20 4 20
6 0 11 13 11 29 0 17 5 33 11 37 6 3 9 17 6 30 -2 13 0 24 4 24 5 0 9 9 9 20
0 11 5 29 10 40 6 11 15 29 20 41 6 11 8 29 5 40 -4 11 -2 19 5 19 7 0 10 14
9 34 -2 19 0 38 4 42 4 4 7 20 7 35 0 15 5 31 11 34 6 4 9 31 8 61 -2 29 0 57
4 61 4 3 7 18 7 33 0 19 5 26 19 26 18 0 19 -8 19 -101 -1 -55 -4 -104 -8
-110 -4 -5 -10 -37 -13 -69 -3 -32 -11 -64 -16 -69 -6 -6 -11 -23 -11 -38 0
-15 -5 -31 -10 -34 -6 -4 -8 -15 -5 -25 3 -10 2 -27 -3 -37 -25 -48 -33 -71
-31 -84 2 -13 -1 -25 -21 -75 -4 -11 -6 -32 -3 -47 3 -16 1 -27 -6 -27 -6 0
-11 -13 -11 -29 0 -17 -5 -33 -11 -37 -7 -4 -9 -24 -6 -50 2 -24 0 -45 -5 -46
-6 -2 -10 -65 -10 -148 0 -80 -5 -150 -10 -157 -6 -7 -5 -19 1 -32 6 -11 11
-53 11 -95 0 -41 5 -78 10 -81 6 -3 10 -35 10 -70 0 -35 4 -66 8 -69 5 -3 7
-18 4 -34 -2 -16 1 -33 7 -36 6 -4 11 -29 11 -55 0 -26 3 -51 8 -55 4 -4 7
-22 7 -39 0 -26 5 -33 23 -35 16 -3 22 2 22 17 0 11 4 22 9 25 10 7 25 181 22
263 -1 36 3 64 9 68 7 4 10 34 9 76 -1 38 1 72 4 76 4 3 7 35 7 69 0 36 5 66
11 70 7 4 9 25 5 57 -3 28 -1 56 4 62 5 7 12 29 14 51 2 21 7 47 11 57 4 9 5
24 2 32 -4 8 -2 17 3 20 6 4 10 19 10 35 0 16 5 32 10 35 6 3 10 15 10 26 0
10 5 19 11 19 6 0 9 9 6 20 -3 11 -1 23 5 26 5 3 8 15 5 25 -3 11 -1 19 4 19
5 0 9 10 9 23 0 12 11 39 25 59 14 20 25 40 25 43 0 15 41 95 49 95 5 0 12 8
15 18 11 29 32 62 60 91 14 15 26 32 26 39 0 6 6 15 14 19 16 10 30 89 16 98
-5 3 -10 15 -10 26 0 19 -3 27 -34 86 -9 17 -16 38 -16 47 0 9 -4 16 -10 16
-6 0 -9 3 -8 8 4 20 -62 126 -94 150 -10 7 -18 19 -18 25 0 13 -149 164 -179
181 -62 37 -121 65 -121 59 0 -5 -5 0 -11 10 -5 9 -16 17 -24 17 -8 0 -60 -44
-115 -97z"/>
<path d="M6646 8581 c-4 -6 -18 -11 -32 -11 -13 0 -32 -4 -42 -9 -9 -5 -44
-21 -77 -37 -33 -15 -74 -38 -92 -51 -17 -13 -34 -23 -37 -23 -18 0 -173 -156
-189 -191 -4 -8 -18 -32 -32 -54 -14 -22 -28 -47 -32 -55 -4 -8 -12 -19 -20
-23 -7 -4 -13 -18 -13 -30 0 -13 -7 -33 -16 -45 -9 -13 -13 -29 -10 -37 3 -8
1 -15 -4 -15 -6 0 -10 -9 -10 -21 0 -11 -7 -27 -15 -36 -8 -8 -13 -19 -9 -24
3 -6 0 -16 -6 -24 -7 -8 -9 -22 -6 -31 4 -9 1 -23 -5 -30 -6 -8 -9 -26 -6 -40
3 -17 0 -27 -10 -31 -9 -4 -14 -17 -12 -37 1 -17 -1 -38 -4 -46 -9 -26 -21
-112 -22 -167 -1 -29 -4 -56 -8 -59 -4 -4 -7 -36 -7 -70 0 -35 -4 -66 -10 -69
-14 -9 -13 -58 2 -73 23 -23 38 -13 38 23 0 22 5 35 13 35 7 0 20 12 29 28 9
15 43 41 75 57 32 17 63 35 68 42 6 6 51 31 100 55 50 23 93 46 96 51 3 4 35
27 72 50 71 46 210 174 202 187 -2 4 5 16 16 26 12 11 33 42 46 69 14 28 34
62 44 77 11 14 19 34 19 43 0 9 6 31 14 48 17 38 28 83 28 117 0 14 4 30 10
37 5 7 8 35 7 63 -2 27 2 55 7 60 6 6 9 55 7 121 -3 101 -5 113 -26 130 -12
10 -31 19 -42 19 -11 0 -36 3 -56 6 -22 4 -39 2 -43 -5z"/>
<path d="M7270 7910 c-8 -5 -28 -10 -44 -10 -28 0 -64 -9 -131 -34 -16 -6 -35
-10 -42 -8 -6 1 -14 -2 -18 -8 -3 -5 -15 -10 -25 -10 -10 0 -25 -8 -32 -18
-11 -16 -97 -62 -114 -62 -4 0 -21 -12 -39 -27 -17 -16 -42 -35 -55 -43 -24
-15 -270 -257 -270 -266 0 -2 -20 -28 -44 -58 -23 -29 -49 -67 -57 -85 -8 -17
-17 -31 -21 -31 -5 0 -8 -6 -8 -12 0 -13 -9 -32 -49 -101 -12 -21 -19 -42 -17
-46 3 -4 -2 -20 -10 -35 -7 -16 -14 -35 -14 -42 0 -8 -4 -14 -10 -14 -5 0 -10
-8 -10 -19 0 -10 -10 -38 -23 -62 -13 -24 -29 -66 -36 -94 -7 -27 -19 -57 -27
-66 -8 -9 -14 -20 -13 -25 3 -11 -15 -59 -36 -97 -8 -16 -15 -35 -15 -43 0
-21 34 -17 55 6 10 11 24 20 31 20 7 0 22 14 34 30 12 17 27 30 34 30 6 0 30
18 51 40 21 22 44 40 50 40 13 0 125 114 125 127 0 5 16 24 35 43 19 19 35 40
35 46 0 7 8 19 18 26 17 13 28 28 60 82 9 16 31 45 47 65 40 46 84 114 104
158 6 12 19 28 31 35 11 7 20 18 20 24 0 6 11 21 25 34 14 13 25 29 25 35 0 6
16 26 35 45 19 19 35 39 35 45 0 6 18 28 39 49 32 31 44 37 65 32 31 -8 34
-36 6 -54 -19 -11 -59 -65 -88 -118 -7 -13 -22 -29 -33 -34 -10 -6 -19 -18
-19 -27 0 -9 -8 -22 -17 -29 -10 -7 -18 -16 -18 -21 0 -5 -17 -29 -37 -54 -21
-25 -38 -51 -38 -56 0 -5 -9 -18 -20 -28 -11 -10 -20 -24 -20 -31 0 -7 -7 -17
-16 -22 -15 -8 -33 -35 -53 -77 -5 -12 -16 -27 -25 -34 -9 -7 -16 -18 -16 -24
0 -6 -7 -17 -15 -26 -47 -51 -85 -100 -85 -108 0 -13 -125 -133 -140 -133 -6
0 -10 -11 -8 -27 2 -20 9 -29 26 -31 12 -2 22 1 22 7 0 6 9 11 19 11 11 0 23
5 26 10 3 6 13 10 22 10 8 0 27 9 43 20 15 11 30 17 33 13 9 -8 74 24 128 63
26 19 51 34 56 34 6 0 18 9 28 20 10 11 22 20 28 20 10 0 217 210 217 220 0 4
11 17 25 30 14 13 25 29 25 37 0 7 5 13 10 13 6 0 15 12 21 28 5 15 20 47 32
72 12 25 22 49 22 53 0 4 6 12 14 16 7 5 11 15 9 22 -3 8 3 26 13 41 11 14 16
33 13 42 -3 9 -1 16 5 16 6 0 11 15 11 34 0 19 5 38 11 42 6 3 9 17 6 30 -2
14 0 27 4 30 5 3 9 16 9 29 0 21 17 35 42 35 7 0 8 -23 3 -72 -10 -101 -10
-102 -17 -113 -3 -6 -9 -31 -12 -57 -4 -27 -11 -48 -17 -48 -5 0 -9 -11 -9
-24 0 -14 -4 -27 -9 -30 -5 -3 -12 -21 -15 -41 -4 -19 -18 -48 -31 -64 -14
-16 -25 -35 -25 -43 0 -8 -5 -19 -11 -25 -12 -12 -32 -45 -48 -78 -5 -11 -21
-31 -35 -44 -14 -14 -26 -29 -26 -35 0 -16 -235 -226 -252 -226 -4 0 -42 -21
-83 -46 -42 -26 -91 -50 -108 -54 -37 -9 -124 -39 -148 -50 -9 -5 -37 -11 -63
-15 -25 -4 -49 -11 -52 -16 -3 -5 -20 -9 -39 -9 -19 0 -36 -4 -39 -9 -3 -5
-18 -12 -33 -16 -46 -11 -262 -198 -263 -225 0 -14 8 -15 63 -5 34 6 69 14 77
17 30 12 76 20 112 19 20 -1 39 3 43 9 3 5 17 10 30 10 13 0 26 4 29 9 3 4 28
11 54 15 27 3 71 17 98 31 27 14 59 25 72 25 12 0 22 5 22 10 0 6 7 10 16 10
13 0 111 49 139 70 6 4 21 11 35 15 14 4 77 50 141 101 64 52 120 94 126 94
14 0 60 52 67 77 4 12 27 40 52 61 24 22 44 45 44 51 0 6 5 11 10 11 6 0 15
10 21 23 5 12 23 47 39 77 16 30 30 61 30 68 0 6 3 12 8 12 4 0 15 21 25 48
11 26 23 57 29 69 6 11 8 26 4 31 -3 5 1 15 10 22 8 7 13 19 10 26 -3 7 -1 14
4 16 5 2 12 30 15 63 4 33 11 69 16 80 11 23 6 300 -6 353 -5 22 -17 38 -39
50 -36 19 -114 26 -136 12z"/>
<path d="M5067 7584 c-32 -27 -35 -64 -7 -89 11 -10 20 -22 20 -27 0 -14 62
-78 77 -78 7 0 13 -7 13 -15 0 -8 12 -21 28 -29 51 -28 276 -258 302 -311 14
-27 25 -52 26 -55 10 -46 18 -70 25 -70 5 0 9 -9 9 -19 0 -11 4 -22 9 -25 5
-3 7 -14 4 -25 -2 -10 1 -24 9 -32 7 -8 14 -32 16 -54 2 -22 8 -45 13 -51 5
-6 10 -24 11 -40 1 -16 4 -33 7 -39 3 -5 6 -31 7 -57 0 -26 7 -54 14 -63 9
-11 11 -35 7 -80 -3 -39 -1 -68 5 -71 14 -9 0 -384 -14 -402 -6 -7 -8 -28 -5
-46 4 -28 3 -34 -9 -29 -8 3 -17 16 -20 29 -3 13 -10 24 -15 24 -5 0 -6 7 -2
15 3 9 -2 24 -11 34 -9 10 -18 27 -20 37 -2 11 -11 33 -20 49 -9 17 -16 39
-16 51 0 11 -3 24 -7 27 -3 4 -8 57 -10 119 -2 62 -7 114 -11 116 -4 1 -6 21
-4 43 3 23 0 51 -6 63 -5 11 -19 50 -30 86 -31 99 -46 134 -60 144 -8 4 -21
22 -29 40 -30 64 -44 86 -64 96 -10 6 -19 16 -19 23 0 7 -18 31 -40 52 -22 21
-40 43 -40 47 0 9 -87 91 -102 97 -5 2 -28 23 -50 47 -22 24 -46 44 -53 44 -7
0 -27 16 -46 35 -19 19 -40 35 -47 35 -7 0 -15 6 -18 14 -3 7 -33 28 -68 45
-34 18 -74 43 -89 57 -15 13 -41 27 -58 31 -17 3 -33 12 -36 19 -3 8 -14 14
-24 14 -20 0 -95 35 -121 58 -9 8 -25 11 -36 7 -11 -3 -23 -1 -26 4 -4 5 -27
13 -51 17 -25 3 -48 10 -51 15 -3 5 -18 9 -34 9 -16 0 -31 4 -34 9 -3 5 -34 6
-70 4 -41 -4 -66 -2 -70 6 -9 14 -113 15 -121 1 -3 -5 -14 -10 -23 -10 -27 -1
-70 -45 -88 -90 -13 -32 -15 -59 -10 -118 3 -42 11 -79 17 -83 8 -4 8 -12 1
-26 -12 -22 -5 -63 10 -63 6 0 7 -7 4 -16 -3 -8 0 -25 6 -37 7 -12 11 -26 10
-31 -2 -4 2 -14 9 -22 6 -7 8 -18 4 -24 -4 -6 3 -27 14 -46 12 -19 21 -44 21
-55 0 -10 5 -19 10 -19 6 0 10 -7 10 -15 0 -8 4 -15 9 -15 4 0 14 -21 21 -47
7 -27 21 -56 32 -65 11 -10 18 -25 14 -33 -3 -8 0 -14 6 -12 6 1 15 -11 21
-28 5 -16 16 -37 23 -46 8 -8 14 -19 14 -23 0 -5 11 -17 25 -28 14 -11 25 -24
25 -30 0 -5 11 -19 25 -30 14 -11 25 -25 25 -31 0 -10 217 -227 227 -227 2 0
19 -11 36 -24 18 -13 59 -36 92 -52 33 -15 71 -36 85 -45 28 -18 108 -44 128
-40 6 1 12 -3 12 -9 0 -5 13 -10 28 -10 15 0 32 -4 38 -9 5 -5 43 -14 84 -20
126 -18 194 -32 217 -43 12 -6 33 -8 46 -4 14 3 27 2 29 -2 2 -5 34 -23 71
-41 50 -23 88 -51 138 -103 38 -39 67 -73 65 -76 -3 -3 3 -17 12 -31 20 -29
47 -85 57 -115 11 -35 12 -195 1 -199 -6 -2 -10 -30 -11 -63 0 -32 -3 -63 -6
-69 -4 -5 -6 -52 -5 -103 0 -50 -2 -92 -6 -92 -5 0 -8 -29 -8 -64 0 -37 -5
-68 -11 -72 -7 -4 -9 -22 -6 -45 3 -22 1 -39 -4 -39 -5 0 -9 -13 -9 -29 0 -23
6 -30 26 -35 30 -8 153 -10 161 -3 2 3 17 2 32 -3 30 -8 61 4 61 24 0 15 39
62 49 59 4 -1 8 8 8 19 1 11 9 28 17 37 9 10 16 23 16 29 0 6 11 19 25 30 14
11 25 27 25 35 0 8 7 17 15 21 8 3 15 14 15 24 0 10 16 35 36 55 36 35 53 59
72 102 6 11 19 29 31 39 11 11 21 24 21 30 0 6 12 25 28 41 51 57 53 68 26
109 -15 22 -33 36 -46 36 -26 0 -88 -46 -88 -64 0 -8 -7 -16 -15 -20 -8 -3
-15 -12 -15 -20 0 -7 -11 -21 -25 -30 -14 -9 -25 -23 -25 -32 0 -8 -7 -17 -15
-20 -8 -4 -15 -15 -15 -25 0 -11 -7 -22 -15 -25 -8 -4 -15 -15 -15 -25 0 -11
-7 -22 -15 -25 -8 -4 -15 -12 -15 -20 0 -7 -9 -18 -20 -24 -10 -6 -22 -26 -26
-44 -3 -19 -12 -37 -20 -40 -8 -3 -14 -10 -14 -17 0 -6 -12 -28 -27 -48 -37
-48 -52 -72 -59 -93 -11 -32 -24 -19 -24 22 0 22 5 40 11 40 6 0 9 19 8 48 -1
26 0 52 3 58 3 5 6 38 7 74 0 36 5 66 10 68 6 2 7 32 4 72 -4 48 -2 74 6 84 8
9 12 43 10 90 -1 47 2 81 10 90 8 10 10 37 5 90 -5 57 -4 76 5 76 9 0 12 18
10 58 -1 32 0 63 4 69 3 5 7 40 9 76 1 37 6 67 11 67 5 0 8 17 6 38 -2 41 15
92 31 92 5 0 10 6 10 13 0 8 9 22 20 32 11 10 20 24 20 30 0 7 7 19 16 26 16
13 37 54 39 75 0 6 6 18 13 27 8 9 13 26 11 39 -1 13 1 31 6 41 4 9 4 29 1 43
-4 14 -2 32 3 38 6 7 12 26 14 42 2 17 7 35 11 42 4 7 6 25 5 40 -1 15 1 34 4
42 20 50 37 114 37 136 0 22 31 101 61 156 23 43 38 102 28 109 -7 4 -8 16 -4
30 7 21 6 22 -9 10 -13 -11 -19 -11 -31 -1 -21 17 -64 4 -75 -23 -6 -12 -14
-29 -19 -37 -11 -18 -24 -51 -26 -65 0 -5 -9 -26 -19 -47 -9 -20 -16 -42 -15
-50 2 -14 -6 -41 -22 -70 -5 -10 -6 -24 -3 -31 3 -8 -2 -17 -11 -21 -12 -4
-15 -13 -11 -30 3 -14 2 -27 -3 -31 -5 -3 -7 -21 -4 -40 4 -23 2 -35 -6 -35
-6 0 -11 -17 -11 -40 0 -22 -5 -40 -11 -40 -6 0 -10 -18 -8 -42 1 -24 -1 -50
-4 -58 -3 -8 -8 -26 -11 -40 -3 -14 -15 -36 -26 -50 l-20 -25 0 65 c0 37 -4
70 -9 75 -5 6 -12 43 -15 84 -3 41 -10 79 -16 85 -5 5 -10 20 -10 32 0 13 -5
26 -10 29 -6 4 -8 15 -5 25 3 10 2 27 -4 37 -9 17 -22 53 -23 63 0 3 -5 14
-11 25 -6 11 -10 27 -9 37 2 9 -2 19 -8 23 -5 3 -10 15 -10 26 0 11 -15 48
-34 82 -64 117 -76 142 -76 154 0 7 -3 13 -8 13 -4 0 -12 10 -17 23 -7 15 -20
23 -42 25 -18 2 -33 8 -33 15 0 11 -149 157 -160 157 -9 0 -90 85 -90 93 0 15
-74 72 -100 78 -19 4 -34 -1 -53 -17z m-850 -234 c10 0 81 -93 90 -118 4 -9
23 -34 43 -54 20 -20 50 -56 66 -80 64 -95 259 -318 277 -318 17 0 177 -81
177 -90 0 -5 16 -12 35 -16 36 -6 63 -28 47 -38 -8 -5 -38 5 -191 62 -29 10
-64 31 -77 46 -14 14 -32 26 -40 26 -8 0 -17 7 -20 15 -4 8 -13 15 -20 15 -8
0 -19 11 -24 24 -5 13 -21 30 -36 38 -15 7 -35 25 -43 40 -9 15 -37 45 -63 68
-25 22 -56 61 -68 86 -13 25 -28 48 -35 51 -7 2 -33 32 -56 66 -24 34 -65 90
-91 125 -42 55 -47 66 -37 84 12 22 12 22 35 -5 13 -15 27 -27 31 -27z m-160
-92 c5 -7 16 -33 23 -57 8 -24 20 -45 27 -48 7 -3 13 -17 13 -31 0 -39 68
-182 102 -215 10 -10 18 -24 18 -32 0 -16 39 -85 49 -85 3 0 12 -14 20 -32 21
-46 176 -198 249 -243 34 -21 62 -42 62 -47 0 -18 166 -86 310 -127 177 -51
301 -111 398 -192 70 -59 90 -85 55 -72 -27 10 -76 46 -91 66 -19 25 -156 89
-195 91 -18 0 -36 6 -42 12 -5 7 -77 32 -160 57 -155 46 -246 78 -255 88 -9
11 -68 39 -82 39 -40 0 -272 237 -297 303 -6 15 -15 27 -20 27 -13 0 -61 82
-61 103 0 10 -9 26 -20 37 -11 11 -27 39 -35 62 -8 24 -19 44 -25 46 -14 5
-40 69 -34 85 2 7 -5 39 -16 71 -21 62 -26 106 -11 106 5 0 13 -6 18 -12z
m683 -140 c0 -9 11 -29 25 -44 24 -26 29 -37 26 -60 -1 -6 12 -41 29 -77 33
-74 37 -97 15 -97 -31 0 -57 41 -85 137 -7 23 -21 51 -31 62 -10 10 -15 21
-12 24 3 3 0 22 -7 41 -6 20 -9 40 -5 46 9 14 45 -11 45 -32z m371 -269 c23
-40 55 -86 72 -103 16 -17 36 -45 43 -62 7 -17 26 -44 41 -61 46 -49 83 -101
83 -115 0 -8 4 -18 9 -24 12 -13 51 -148 51 -178 0 -14 -4 -26 -9 -26 -11 0
-21 25 -21 51 0 10 -9 28 -20 39 -12 12 -37 49 -56 83 -19 34 -66 105 -105
157 -90 123 -117 170 -133 228 -7 26 -17 55 -21 65 -5 12 -3 17 8 17 9 0 34
-31 58 -71z"/>
<path d="M7560 6570 c-8 -5 -50 -10 -92 -10 -42 0 -80 -4 -83 -10 -3 -5 -26
-10 -50 -10 -24 0 -46 -4 -49 -9 -3 -5 -14 -7 -24 -4 -11 2 -37 -3 -58 -13
-21 -9 -43 -18 -49 -19 -40 -7 -76 -19 -81 -26 -3 -5 -15 -9 -27 -9 -13 0 -31
-6 -42 -14 -11 -7 -65 -37 -119 -66 -55 -28 -108 -63 -118 -76 -11 -13 -22
-24 -26 -24 -11 0 -152 -137 -152 -147 0 -6 -9 -18 -20 -28 -11 -10 -20 -24
-20 -31 0 -7 -6 -17 -13 -21 -16 -11 -88 -153 -82 -163 3 -4 -2 -20 -10 -36
-19 -39 -39 -87 -40 -99 -1 -5 -5 -18 -10 -28 -4 -9 -5 -27 -2 -39 4 -12 2
-27 -2 -32 -5 -6 -10 -27 -12 -46 -2 -19 -6 -40 -10 -45 -10 -14 -6 -405 4
-405 4 0 7 -25 7 -55 0 -34 4 -55 11 -55 8 0 10 -14 6 -39 -3 -22 0 -44 6 -50
6 -6 12 -19 14 -28 10 -65 17 -89 27 -95 6 -4 36 -7 68 -6 l56 2 8 45 c4 25 8
82 9 126 2 44 5 87 8 95 7 18 16 126 16 192 0 25 5 49 11 53 5 3 10 21 10 40
0 19 5 37 11 41 6 3 8 16 5 27 -3 12 0 27 6 34 6 7 8 22 5 32 -3 12 1 22 9 25
8 3 14 19 14 35 0 16 5 33 10 36 6 4 8 11 4 16 -3 5 0 16 6 24 7 8 10 21 7 28
-3 7 1 21 9 32 8 10 14 29 14 41 0 12 4 24 8 26 4 2 20 29 35 61 33 70 87 146
105 147 14 0 17 -56 2 -65 -5 -3 -26 -40 -46 -81 -20 -41 -40 -74 -44 -74 -4
0 -11 -17 -15 -37 -4 -21 -11 -43 -16 -49 -5 -7 -9 -16 -8 -20 2 -10 -8 -40
-22 -66 -5 -10 -9 -29 -9 -42 0 -14 -5 -28 -10 -31 -6 -4 -8 -16 -5 -26 4 -11
1 -26 -5 -34 -6 -8 -10 -25 -8 -38 1 -13 -3 -32 -11 -41 -8 -10 -11 -27 -7
-46 3 -18 1 -30 -5 -30 -7 0 -10 -17 -7 -45 2 -25 -1 -46 -7 -48 -5 -2 -10
-31 -9 -65 1 -34 -3 -62 -7 -62 -5 0 -9 -49 -9 -110 0 -60 4 -110 9 -110 5 0
16 -3 25 -6 11 -4 16 -1 16 11 0 22 28 82 56 120 12 17 25 41 29 54 7 23 47
102 73 146 7 11 17 31 22 45 6 14 19 39 30 55 11 17 24 40 29 52 6 12 22 30
36 39 14 9 23 19 20 22 -3 3 19 31 48 63 28 31 63 71 76 89 13 17 53 55 90 84
36 29 80 66 96 82 35 33 92 74 104 74 4 0 16 9 26 20 10 11 24 20 30 20 7 0
20 11 29 25 9 14 21 25 27 25 14 0 379 367 379 380 0 6 9 10 20 10 15 0 20 7
20 25 0 22 4 25 35 25 l35 0 -21 -37 c-20 -36 -186 -224 -260 -295 -52 -49
-51 -62 4 -54 23 4 46 11 52 17 5 5 15 9 23 9 16 0 54 16 154 65 36 19 68 32
70 30 2 -2 35 20 72 48 38 29 81 59 96 68 31 19 128 120 150 155 14 23 13 26
-15 49 -17 13 -35 24 -42 25 -6 0 -13 3 -15 8 -7 16 -74 56 -93 54 -11 0 -29
5 -41 13 -12 7 -39 16 -60 20 -40 7 -59 13 -105 35 -16 7 -39 9 -57 5 -18 -3
-33 -2 -37 4 -3 6 -41 11 -89 11 -45 0 -86 3 -90 7 -11 11 -110 14 -126 3z
m30 -174 c0 -7 -6 -19 -14 -25 -26 -21 -138 -222 -176 -313 -14 -36 -25 -48
-40 -48 -18 0 -20 4 -14 23 25 81 123 261 181 335 34 42 63 55 63 28z"/>
<path d="M3400 6505 c-47 -27 -53 -28 -71 -17 -10 7 -32 12 -49 12 -23 0 -30
-4 -30 -20 0 -11 7 -23 15 -26 8 -4 15 -10 15 -15 0 -5 16 -32 35 -59 19 -27
35 -54 35 -60 0 -5 5 -10 10 -10 6 0 15 -11 20 -25 5 -14 14 -25 20 -25 5 0
10 -9 10 -20 0 -11 8 -28 18 -38 9 -9 34 -43 55 -75 21 -31 42 -57 46 -57 5 0
12 -8 15 -17 13 -35 37 -73 47 -73 5 0 9 -5 9 -11 0 -6 20 -35 45 -63 25 -29
45 -60 45 -69 0 -8 13 -26 29 -39 16 -13 71 -69 122 -125 50 -57 98 -103 105
-103 8 0 22 -8 32 -17 40 -40 131 -113 139 -113 5 0 24 -13 43 -30 19 -16 41
-29 48 -30 6 0 12 -3 12 -8 0 -4 17 -16 38 -27 20 -10 49 -27 64 -37 14 -10
31 -18 37 -18 6 0 32 -15 59 -34 26 -19 59 -37 74 -41 15 -4 29 -13 32 -21 3
-8 17 -14 31 -14 18 0 25 5 25 19 0 11 -4 22 -10 26 -5 3 -7 12 -4 19 3 8 0
17 -5 21 -6 3 -9 11 -5 16 3 6 -1 18 -9 27 -8 9 -34 56 -57 105 -23 48 -46 89
-50 92 -5 3 -18 26 -31 53 -12 26 -29 51 -36 55 -7 4 -13 17 -13 28 0 11 -11
31 -25 45 -14 14 -25 28 -25 33 0 4 -13 20 -30 36 -16 16 -30 37 -30 46 0 10
-8 20 -18 23 -10 4 -57 45 -103 93 -73 75 -140 131 -263 221 -17 12 -36 22
-43 22 -7 0 -13 3 -13 8 0 4 -15 13 -32 21 -18 8 -42 22 -53 31 -22 19 -141
81 -192 100 -27 10 -33 18 -33 41 0 23 4 29 23 29 12 0 34 -6 48 -14 14 -7 38
-16 54 -20 16 -4 40 -15 54 -25 14 -9 51 -28 81 -41 30 -13 62 -30 71 -37 8
-7 20 -13 26 -13 5 0 20 -11 33 -25 13 -14 31 -25 41 -25 10 0 24 -8 31 -19 7
-10 23 -21 36 -25 12 -4 22 -12 22 -17 0 -5 7 -9 15 -9 8 0 29 -16 48 -35 19
-19 38 -35 44 -35 5 0 42 -35 81 -77 131 -142 130 -141 118 -154 -8 -9 -8 -10
2 -5 8 5 19 -4 30 -23 9 -17 20 -31 25 -31 4 0 7 -7 7 -15 0 -8 10 -23 21 -34
12 -11 19 -26 16 -34 -3 -9 1 -14 10 -13 9 0 21 -12 27 -29 6 -16 29 -63 51
-104 22 -41 44 -82 50 -92 5 -11 13 -19 17 -19 4 0 5 -7 2 -14 -3 -8 8 -35 25
-59 17 -25 27 -47 24 -50 -3 -4 0 -13 7 -22 7 -8 10 -21 7 -29 -7 -19 46 -69
69 -64 24 4 39 78 20 93 -7 6 -13 28 -14 49 -1 22 -5 43 -10 48 -5 5 -7 31 -5
59 2 29 0 49 -7 49 -5 0 -10 18 -10 40 0 22 -4 40 -10 40 -5 0 -10 10 -10 23
0 38 -12 97 -21 103 -5 3 -9 16 -9 30 0 13 -4 24 -10 24 -5 0 -12 16 -16 35
-3 19 -10 37 -14 40 -5 3 -6 14 -3 25 3 11 0 20 -6 20 -6 0 -11 5 -11 11 0 7
-16 34 -35 60 -19 27 -35 54 -35 59 0 6 -7 13 -16 17 -8 3 -13 12 -10 20 6 14
-212 243 -231 243 -5 0 -18 9 -28 20 -10 11 -24 20 -30 20 -7 0 -18 7 -25 15
-12 15 -190 105 -207 105 -6 0 -16 7 -23 15 -7 9 -20 15 -29 14 -9 -1 -23 1
-31 4 -23 8 -73 18 -95 18 -10 0 -24 4 -31 10 -13 10 -66 16 -224 23 -80 4
-111 2 -130 -9z m83 -47 c23 -23 21 -28 -12 -28 -41 0 -91 20 -91 36 0 20 82
14 103 -8z"/>
<path d="M3057 6442 l-27 -28 5 -129 c7 -196 11 -232 36 -277 5 -10 9 -26 9
-36 0 -10 3 -22 7 -26 10 -9 33 -76 37 -106 2 -13 9 -26 15 -28 6 -2 11 -9 11
-16 0 -7 18 -38 41 -70 35 -49 39 -59 27 -73 -7 -9 -8 -14 -2 -10 14 8 54 -20
54 -37 0 -14 187 -196 200 -196 5 0 17 -11 28 -25 11 -14 27 -25 35 -25 8 0
20 -7 27 -15 6 -8 22 -17 33 -21 12 -4 41 -19 63 -34 23 -15 59 -33 80 -40 22
-6 48 -15 59 -20 75 -31 119 -42 192 -47 46 -3 86 -10 89 -15 3 -4 68 -8 145
-8 l139 0 0 25 c0 16 -6 25 -15 25 -8 0 -15 5 -15 11 0 5 -13 15 -30 20 -16 6
-30 14 -30 18 0 5 -20 16 -45 27 -25 10 -45 21 -45 26 0 7 -42 33 -72 44 -10
3 -18 10 -18 15 0 5 -6 9 -13 9 -7 0 -26 14 -42 30 -16 17 -34 30 -40 30 -7 0
-20 9 -30 20 -10 11 -22 20 -28 20 -10 0 -213 205 -265 269 -20 23 -31 45 -26
52 4 7 3 9 -3 6 -11 -7 -57 36 -48 45 4 3 -5 15 -19 26 -15 11 -26 24 -26 30
0 5 -7 15 -15 22 -20 16 -75 98 -75 111 0 5 -4 9 -10 9 -5 0 -10 5 -10 11 0 9
-61 91 -103 139 -7 8 -22 33 -32 54 -20 45 -29 56 -67 93 -16 15 -28 30 -28
34 0 16 -72 78 -98 84 -22 4 -33 0 -55 -23z"/>
<path d="M8343 6234 c-26 -30 -75 -74 -108 -96 -33 -23 -77 -55 -97 -73 -41
-34 -127 -82 -140 -77 -5 1 -28 -11 -52 -27 -24 -17 -56 -33 -72 -37 -16 -4
-33 -10 -39 -14 -5 -4 -26 -11 -45 -15 -19 -4 -46 -15 -59 -24 -14 -9 -33 -14
-43 -13 -10 2 -18 -2 -18 -7 0 -6 -8 -11 -18 -11 -18 0 -167 -73 -187 -91 -5
-5 -17 -9 -27 -9 -10 0 -18 -4 -18 -10 0 -5 -5 -10 -11 -10 -15 0 -147 -107
-159 -130 -6 -11 -18 -20 -26 -20 -17 0 -124 -99 -124 -115 0 -5 -17 -28 -38
-50 -100 -107 -129 -165 -82 -165 11 0 20 3 20 8 0 9 105 92 118 92 5 0 17 9
26 19 10 11 29 22 43 26 14 3 40 17 57 29 49 37 143 87 158 84 7 -1 22 3 33 9
33 18 149 66 165 68 14 1 31 7 75 25 46 19 61 24 75 25 33 3 81 18 86 26 3 5
18 9 35 9 16 0 29 4 29 9 0 5 24 12 53 16 28 4 63 13 77 20 14 7 36 17 50 23
105 42 167 80 257 156 113 95 109 87 116 229 3 54 0 83 -9 95 -7 9 -14 32 -14
50 0 50 -31 42 -87 -24z"/>
<path d="M8374 5815 c-4 -8 -10 -15 -15 -15 -6 0 -33 -17 -62 -38 -54 -39 -79
-52 -137 -72 -35 -12 -108 -44 -143 -61 -10 -6 -22 -7 -27 -4 -5 3 -25 -4 -45
-15 -20 -11 -40 -18 -44 -16 -4 3 -19 -1 -34 -9 -14 -7 -28 -11 -31 -8 -3 3
-12 0 -20 -6 -8 -7 -20 -10 -25 -6 -6 3 -39 -7 -73 -23 -35 -17 -79 -33 -98
-37 -19 -4 -41 -11 -50 -15 -20 -11 -77 -35 -125 -55 -58 -24 -106 -48 -135
-66 -14 -9 -47 -28 -75 -42 -27 -15 -81 -50 -119 -79 -81 -63 -266 -237 -266
-252 -1 -6 -14 -27 -30 -46 -17 -19 -30 -38 -30 -44 0 -5 -7 -14 -17 -21 -25
-19 -9 -42 34 -49 21 -3 92 -5 158 -5 191 1 208 0 240 -2 34 -2 48 -1 155 5
55 3 88 11 125 30 28 14 55 26 62 26 6 0 40 14 75 31 35 17 101 50 147 73 46
22 88 49 95 59 6 9 16 17 22 17 6 0 21 11 34 25 13 14 29 25 35 25 17 0 205
179 205 195 0 8 14 23 30 35 17 12 30 27 30 33 1 7 14 28 30 47 17 19 30 42
30 52 0 10 7 21 15 24 8 4 15 12 15 20 0 8 5 14 10 14 6 0 10 5 10 11 0 9 17
51 59 144 51 111 53 135 16 135 -14 0 -28 -7 -31 -15z"/>
<path d="M4978 5622 c-37 -35 -42 -45 -46 -96 -2 -31 -8 -59 -13 -62 -12 -7
-11 -81 1 -89 6 -3 10 -24 10 -45 0 -21 4 -41 10 -45 5 -3 7 -12 4 -20 -6 -16
16 -75 28 -75 5 0 8 -6 8 -14 0 -8 11 -28 25 -44 14 -17 25 -34 25 -39 0 -13
126 -130 181 -169 25 -17 56 -35 69 -39 14 -4 37 -19 53 -33 49 -46 177 -37
139 11 -9 12 -21 61 -25 105 -1 12 -5 22 -9 22 -5 0 -8 12 -8 27 0 25 -13 75
-31 118 -5 11 -10 44 -12 73 -3 29 -9 58 -16 65 -6 6 -11 19 -11 29 0 10 -4
18 -10 18 -5 0 -7 7 -4 15 3 8 -3 27 -14 43 -12 15 -24 41 -28 56 -3 15 -17
34 -30 43 -13 8 -24 21 -24 27 0 12 -71 86 -82 86 -4 0 -34 16 -67 35 -32 19
-64 35 -71 35 -6 0 -29 -17 -52 -38z"/>
<path d="M4603 5126 c-36 -17 -28 -48 21 -77 24 -15 61 -32 82 -39 22 -7 68
-38 102 -69 102 -90 111 -95 176 -102 34 -3 72 -9 86 -14 20 -6 23 -5 13 6 -7
7 -13 19 -13 26 0 7 -21 32 -46 55 -25 23 -50 53 -55 65 -5 13 -19 27 -31 32
-13 6 -45 30 -73 56 -28 26 -56 43 -64 40 -7 -3 -20 0 -27 6 -8 7 -29 9 -48 6
-18 -3 -38 -2 -42 3 -16 14 -59 17 -81 6z"/>
<path d="M6770 4800 c-40 -23 -80 -68 -80 -91 0 -9 -7 -22 -15 -29 -8 -7 -15
-20 -15 -29 0 -26 -45 -115 -108 -214 -32 -51 -85 -139 -117 -197 -33 -58 -90
-154 -128 -215 -66 -105 -127 -214 -127 -229 0 -4 -11 -22 -24 -39 -13 -18
-45 -68 -71 -111 -53 -92 -114 -179 -166 -239 -48 -56 -62 -84 -55 -113 7 -25
23 -31 145 -56 l63 -12 24 29 c26 33 54 106 54 142 0 21 44 127 120 285 34 73
29 70 150 97 49 11 280 23 484 25 156 1 147 7 210 -143 64 -153 90 -244 82
-292 -7 -42 18 -103 39 -96 5 2 40 14 77 26 37 13 78 31 90 41 35 28 27 82
-25 187 -66 131 -247 529 -341 752 -122 288 -176 435 -176 480 0 30 -5 43 -19
51 -25 13 -29 12 -71 -10z m15 -382 c25 -51 78 -177 119 -280 63 -160 71 -188
57 -194 -35 -14 -534 -25 -547 -11 -7 7 33 85 99 194 29 48 73 124 97 168 67
125 120 215 126 215 3 0 25 -42 49 -92z"/>
<path d="M2951 4757 c-40 -24 -67 -96 -42 -112 5 -3 16 -36 25 -73 13 -58 14
-130 5 -547 -9 -439 -13 -530 -34 -651 -12 -70 0 -80 102 -87 48 -3 93 -2 98
3 14 11 462 19 472 9 5 -5 40 -11 79 -15 69 -6 71 -6 92 21 27 34 30 109 6
143 -13 19 -24 22 -77 22 -35 0 -90 -7 -122 -17 -73 -20 -300 -20 -385 0 -50
12 -55 16 -62 48 -4 19 -6 70 -3 114 3 44 8 267 10 495 5 401 9 449 36 516 26
66 -33 130 -128 140 -31 3 -57 0 -72 -9z"/>
<path d="M4845 4753 c-17 -13 -48 -14 -205 -9 -102 4 -207 9 -235 12 -70 7
-83 -5 -91 -88 l-7 -66 33 -17 c33 -17 60 -17 165 0 17 3 74 8 127 11 l97 6
11 -42 c7 -27 11 -178 10 -452 0 -386 -9 -568 -31 -624 -9 -24 -3 -159 7 -176
3 -4 24 -8 47 -8 23 0 58 0 77 0 19 0 40 6 45 13 6 8 20 19 33 26 26 14 28 38
7 136 -33 161 -9 1052 31 1116 6 10 277 12 288 2 3 -4 55 -8 115 -11 123 -4
121 -5 139 76 9 36 7 43 -13 62 -22 20 -33 21 -191 21 -93 -1 -205 -4 -250 -7
-63 -5 -86 -3 -105 9 -37 23 -81 28 -104 10z"/>
<path d="M1911 4742 c-71 -23 -86 -46 -70 -104 10 -32 12 -161 11 -518 -2
-462 -15 -763 -34 -787 -12 -15 25 -53 52 -53 12 0 35 7 52 16 26 14 63 15
272 10 132 -3 293 -9 358 -12 144 -7 152 -2 161 101 8 78 -2 100 -42 92 -14
-3 -60 -13 -101 -22 -41 -9 -120 -18 -175 -20 -55 -2 -157 -7 -227 -11 l-128
-7 -9 25 c-14 37 -28 340 -19 429 12 128 3 122 181 114 84 -4 175 -13 204 -20
62 -16 115 -6 138 28 17 24 21 142 5 152 -5 3 -98 -1 -206 -10 -137 -11 -200
-13 -208 -5 -5 5 -24 10 -41 10 -31 0 -32 2 -50 73 -17 69 -17 79 -1 216 9 78
20 149 23 158 5 13 32 15 207 11 145 -4 213 -9 246 -20 119 -41 191 -28 209
39 6 21 11 50 11 64 0 53 -6 54 -354 54 -176 0 -341 4 -366 7 -31 5 -61 2 -99
-10z"/>
<path d="M7724 4750 c-12 -4 -30 -20 -41 -34 -19 -23 -20 -41 -22 -233 -2
-427 -16 -770 -30 -787 -11 -13 -11 -22 -3 -40 11 -24 5 -103 -9 -121 -14 -18
-22 -187 -11 -217 10 -25 13 -26 87 -24 101 3 131 24 128 87 -2 24 -3 68 -3
97 0 30 -5 62 -10 73 -27 49 -28 690 -2 809 l8 34 115 -134 c63 -74 198 -236
298 -358 101 -123 236 -280 300 -349 64 -69 124 -139 134 -157 27 -45 96 -114
126 -124 85 -30 132 77 105 238 -16 102 -18 315 -4 661 11 278 21 369 51 472
26 89 20 97 -73 97 -129 0 -141 -21 -127 -225 9 -142 6 -881 -4 -891 -7 -7
-170 177 -308 347 -65 80 -169 203 -231 274 -157 179 -239 278 -300 364 -102
144 -124 162 -174 141z"/>
<path d="M3973 4731 c-30 -14 -48 -31 -63 -62 -20 -39 -21 -46 -9 -83 11 -32
14 -137 13 -486 0 -439 -10 -630 -36 -697 -20 -53 -2 -77 76 -98 104 -28 176
-5 176 56 0 15 -10 67 -22 116 -21 84 -22 105 -20 488 1 220 8 454 14 520 17
171 16 195 -10 233 -28 38 -56 41 -119 13z"/>
<path d="M5613 4731 c-30 -14 -48 -31 -63 -62 -20 -39 -21 -46 -9 -83 11 -32
14 -137 13 -486 0 -439 -10 -630 -36 -697 -20 -53 -2 -77 76 -98 104 -28 176
-5 176 56 0 15 -10 67 -22 116 -21 84 -22 105 -20 488 1 220 8 454 14 520 17
171 16 195 -10 233 -28 38 -56 41 -119 13z"/>
<path d="M2980 3088 c0 -88 -1 -90 -18 -75 -27 24 -58 21 -81 -9 -18 -23 -21
-41 -21 -119 0 -78 3 -96 21 -119 24 -31 52 -33 79 -6 l20 20 0 -20 c0 -15 7
-20 25 -20 l25 0 0 220 0 220 -25 0 c-25 0 -25 -1 -25 -92z m-10 -134 c22 -57
6 -164 -24 -164 -23 0 -36 33 -36 95 0 62 13 95 36 95 8 0 19 -12 24 -26z"/>
<path d="M3710 3088 c0 -88 -1 -90 -18 -75 -27 24 -58 21 -81 -9 -18 -23 -21
-41 -21 -119 0 -78 3 -96 21 -119 24 -31 52 -33 79 -6 l20 20 0 -20 c0 -15 7
-20 25 -20 l25 0 0 220 0 220 -25 0 c-25 0 -25 -1 -25 -92z m-10 -134 c22 -57
6 -164 -24 -164 -23 0 -36 33 -36 95 0 62 13 95 36 95 8 0 19 -12 24 -26z"/>
<path d="M5200 3088 c0 -88 -1 -90 -18 -75 -27 24 -58 21 -81 -9 -18 -23 -21
-41 -21 -119 0 -78 3 -96 21 -119 24 -31 52 -33 79 -6 l20 20 0 -20 c0 -15 7
-20 25 -20 l25 0 0 220 0 220 -25 0 c-25 0 -25 -1 -25 -92z m-10 -134 c22 -57
6 -164 -24 -164 -23 0 -36 33 -36 95 0 62 13 95 36 95 8 0 19 -12 24 -26z"/>
<path d="M8320 2960 l0 -220 25 0 25 0 0 220 0 220 -25 0 -25 0 0 -220z"/>
<path d="M1860 3135 c0 -21 5 -25 30 -25 l30 0 0 -185 0 -185 30 0 30 0 0 185
0 185 30 0 c25 0 30 4 30 25 0 25 -1 25 -90 25 -89 0 -90 0 -90 -25z"/>
<path d="M4320 2950 l0 -210 30 0 30 0 0 89 0 89 40 7 c27 5 46 15 56 31 36
54 25 158 -19 189 -13 9 -44 15 -79 15 l-58 0 0 -210z m104 154 c36 -35 13
-144 -30 -144 -11 0 -14 17 -14 80 0 84 10 99 44 64z"/>
<path d="M6750 2951 l0 -211 25 0 24 0 3 138 3 137 49 -137 c44 -125 50 -138
72 -138 l24 0 0 210 0 210 -25 0 -24 0 -3 -142 -3 -143 -50 140 c-43 119 -53
140 -73 143 l-22 3 0 -210z"/>
<path d="M2134 3136 c-9 -24 4 -48 23 -44 12 2 18 12 18 28 0 29 -32 41 -41
16z"/>
<path d="M5880 3070 c0 -29 -4 -40 -15 -40 -8 0 -15 -9 -15 -20 0 -11 7 -20
15 -20 13 0 15 -21 15 -125 l0 -125 25 0 25 0 0 125 c0 118 1 125 20 125 13 0
20 7 20 20 0 13 -7 20 -20 20 -17 0 -20 7 -20 40 0 36 -2 40 -25 40 -22 0 -25
-4 -25 -40z"/>
<path d="M7360 3070 c0 -29 -4 -40 -15 -40 -8 0 -15 -9 -15 -20 0 -11 7 -20
15 -20 13 0 15 -21 15 -125 l0 -125 25 0 25 0 0 125 c0 118 1 125 20 125 13 0
20 7 20 20 0 13 -7 20 -20 20 -17 0 -20 7 -20 40 0 36 -2 40 -25 40 -22 0 -25
-4 -25 -40z"/>
<path d="M2130 2885 l0 -145 25 0 25 0 0 145 0 145 -25 0 -25 0 0 -145z"/>
<path d="M2335 3006 c-29 -29 -39 -77 -33 -158 4 -51 9 -65 32 -85 15 -12 38
-23 50 -23 34 0 73 35 78 70 4 26 1 30 -18 30 -15 0 -24 -8 -28 -25 -13 -53
-66 -17 -66 46 0 17 7 19 61 19 l62 0 -6 53 c-10 87 -79 126 -132 73z m75 -35
c19 -37 12 -51 -25 -51 -25 0 -35 4 -35 16 0 24 19 54 35 54 8 0 19 -9 25 -19z"/>
<path d="M2580 2885 l0 -145 25 0 c24 0 24 0 27 116 3 100 6 118 21 128 34 21
47 -16 47 -136 l0 -108 26 0 26 0 -4 131 c-3 116 -5 132 -22 145 -26 19 -55
18 -78 -3 -17 -15 -18 -15 -18 0 0 11 -8 17 -25 17 l-25 0 0 -145z"/>
<path d="M3184 3022 c-25 -16 -34 -55 -34 -140 0 -75 3 -93 21 -116 23 -30 45
-33 77 -10 20 14 22 14 22 0 0 -10 9 -16 25 -16 l25 0 0 145 0 145 -25 0 c-16
0 -25 -6 -25 -16 0 -14 -2 -14 -22 0 -24 17 -47 20 -64 8z m79 -82 c12 -48 0
-140 -20 -147 -9 -4 -22 1 -29 12 -17 22 -19 128 -3 156 15 30 41 19 52 -21z"/>
<path d="M3905 3006 c-29 -29 -39 -77 -33 -158 4 -51 9 -65 32 -85 15 -12 38
-23 50 -23 34 0 73 35 78 70 4 26 1 30 -18 30 -15 0 -24 -8 -28 -25 -13 -53
-66 -17 -66 46 0 17 7 19 61 19 l62 0 -6 53 c-10 87 -79 126 -132 73z m75 -35
c19 -37 12 -51 -25 -51 -25 0 -35 4 -35 16 0 24 19 54 35 54 8 0 19 -9 25 -19z"/>
<path d="M4600 2885 l0 -145 25 0 25 0 0 104 c0 111 9 136 51 136 14 0 19 7
19 25 0 31 -16 32 -47 3 l-23 -21 0 21 c0 17 -6 22 -25 22 l-25 0 0 -145z"/>
<path d="M4840 3017 c-48 -24 -62 -165 -24 -238 29 -57 121 -45 145 19 6 15 9
62 7 105 -3 72 -6 81 -31 103 -31 27 -60 30 -97 11z m73 -86 c17 -102 -13
-185 -49 -136 -18 24 -19 166 -2 183 25 25 43 8 51 -47z"/>
<path d="M5360 2910 c0 -117 1 -122 26 -147 22 -21 32 -25 66 -20 67 9 73 21
77 162 l3 125 -25 0 c-25 0 -25 0 -29 -110 -3 -117 -13 -144 -46 -124 -14 9
-17 30 -20 123 -3 111 -3 111 -27 111 l-25 0 0 -120z"/>
<path d="M5692 3023 c-44 -18 -65 -191 -29 -246 30 -47 107 -49 107 -3 0 19
-4 22 -25 18 -30 -5 -45 26 -45 93 0 67 15 98 45 93 21 -4 25 -1 25 17 0 30
-38 44 -78 28z"/>
<path d="M6100 3017 c-48 -24 -62 -165 -24 -238 29 -57 121 -45 145 19 6 15 9
62 7 105 -3 72 -6 81 -31 103 -31 27 -60 30 -97 11z m73 -86 c17 -102 -13
-185 -49 -136 -18 24 -19 166 -2 183 25 25 43 8 51 -47z"/>
<path d="M6390 3023 c-26 -9 -40 -35 -40 -73 0 -29 8 -44 40 -75 53 -51 52
-81 -2 -79 -33 1 -38 -2 -38 -22 0 -19 7 -24 36 -30 50 -9 88 19 92 69 3 32
-3 43 -44 87 -40 43 -45 52 -33 66 8 10 23 14 41 12 23 -4 28 -1 28 18 0 30
-37 42 -80 27z"/>
<path d="M7104 3022 c-25 -16 -34 -55 -34 -140 0 -75 3 -93 21 -116 23 -30 45
-33 77 -10 20 14 22 14 22 0 0 -10 9 -16 25 -16 l25 0 0 145 0 145 -25 0 c-16
0 -25 -6 -25 -16 0 -14 -2 -14 -22 0 -24 17 -47 20 -64 8z m79 -82 c12 -48 0
-140 -20 -147 -9 -4 -22 1 -29 12 -17 22 -19 128 -3 156 15 30 41 19 52 -21z"/>
<path d="M7540 2910 c0 -117 1 -122 26 -147 22 -21 32 -25 66 -20 67 9 73 21
77 162 l3 125 -25 0 c-25 0 -25 0 -29 -110 -3 -117 -13 -144 -46 -124 -14 9
-17 30 -20 123 -3 111 -3 111 -27 111 l-25 0 0 -120z"/>
<path d="M7820 2885 l0 -145 25 0 25 0 0 104 c0 111 9 136 51 136 14 0 19 7
19 25 0 31 -16 32 -47 3 l-23 -21 0 21 c0 17 -6 22 -25 22 l-25 0 0 -145z"/>
<path d="M8064 3022 c-25 -16 -34 -55 -34 -140 0 -75 3 -93 21 -116 23 -30 45
-33 77 -10 20 14 22 14 22 0 0 -10 9 -16 25 -16 l25 0 0 145 0 145 -25 0 c-16
0 -25 -6 -25 -16 0 -14 -2 -14 -22 0 -24 17 -47 20 -64 8z m79 -82 c12 -48 0
-140 -20 -147 -9 -4 -22 1 -29 12 -17 22 -19 128 -3 156 15 30 41 19 52 -21z"/>
<path d="M8515 3006 c-29 -29 -39 -77 -33 -158 4 -51 9 -65 32 -85 15 -12 38
-23 50 -23 34 0 73 35 78 70 4 26 1 30 -18 30 -15 0 -24 -8 -28 -25 -13 -53
-66 -17 -66 46 0 17 7 19 61 19 l62 0 -6 53 c-10 87 -79 126 -132 73z m75 -35
c19 -37 12 -51 -25 -51 -25 0 -35 4 -35 16 0 24 19 54 35 54 8 0 19 -9 25 -19z"/>
<path d="M8810 3023 c-26 -9 -40 -35 -40 -73 0 -29 8 -44 40 -75 53 -51 52
-81 -2 -79 -33 1 -38 -2 -38 -22 0 -19 7 -24 36 -30 50 -9 88 19 92 69 3 32
-3 43 -44 87 -40 43 -45 52 -33 66 8 10 23 14 41 12 23 -4 28 -1 28 18 0 30
-37 42 -80 27z"/>
</g>
</svg>