<svg fill="#000000" height="200px" width="200px" version="1.1" id="Capa_1" xmlns="http://www.w3.org/2000/svg" xmlns:xlink="http://www.w3.org/1999/xlink" viewBox="0 0 470 470" xml:space="preserve"><g id="SVGRepo_bgCarrier" stroke-width="0"></g><g id="SVGRepo_tracerCarrier" stroke-linecap="round" stroke-linejoin="round"></g><g id="SVGRepo_iconCarrier"> <g> <path d="M446.925,123.49L238.804,1.036c-2.348-1.381-5.26-1.381-7.607,0L23.075,123.49c-3.569,2.101-4.761,6.697-2.66,10.268 c2.1,3.569,6.696,4.76,10.268,2.661l33.126-19.491v281.365c0,4.142,3.357,7.5,7.5,7.5h117.137c4.143,0,7.5-3.358,7.5-7.5 s-3.357-7.5-7.5-7.5H78.809v-282.69L235,16.202l156.191,91.9v282.69H290.952c-4.143,0-7.5,3.358-7.5,7.5s3.357,7.5,7.5,7.5h107.739 c4.143,0,7.5-3.358,7.5-7.5V116.928l33.126,19.491c1.195,0.703,2.504,1.037,3.797,1.037c2.57,0,5.073-1.322,6.471-3.698 C451.686,130.188,450.494,125.591,446.925,123.49z"></path> <path d="M319.977,251.433c0-61.351-30.172-118.842-80.711-153.789c-2.566-1.775-5.965-1.775-8.531,0 c-50.539,34.947-80.711,92.438-80.711,153.789c0,60.024,28.895,116.341,77.476,151.478l0,59.589c0,4.142,3.358,7.5,7.5,7.5 c4.143,0,7.5-3.358,7.5-7.5l0-59.588C291.081,367.775,319.977,311.458,319.977,251.433z M242.499,383.971l-0.001-91.916 l44.958-44.958c2.929-2.929,2.929-7.678,0-10.606c-2.93-2.929-7.678-2.929-10.607,0l-34.35,34.351l-0.001-128.61 c0-4.142-3.357-7.5-7.5-7.5s-7.5,3.358-7.5,7.5l0.001,128.607l-34.346-34.346c-2.93-2.929-7.678-2.929-10.607,0 c-2.929,2.929-2.929,7.678,0,10.606l44.954,44.953l0.001,91.918c-39.365-32.524-62.476-81.05-62.476-132.537 c0-54.68,26.059-106.026,69.977-138.405c43.918,32.379,69.977,83.725,69.977,138.405 C304.977,302.921,281.865,351.447,242.499,383.971z"></path> </g> </g></svg>