<svg version="1.0" xmlns="http://www.w3.org/2000/svg"
 width="492.000000pt" height="736.000000pt" viewBox="0 0 492.000000 736.000000"
 preserveAspectRatio="xMidYMid meet">

<g transform="translate(0.000000,736.000000) scale(0.100000,-0.100000)"
fill="#000000" stroke="none">
<path d="M2412 7105 c-197 -177 -325 -531 -292 -802 14 -113 39 -184 110 -318
31 -60 72 -148 90 -195 26 -69 41 -93 79 -126 l46 -41 0 226 c0 251 7 295 76
542 37 131 62 250 74 352 5 39 10 47 27 47 20 0 20 -4 15 -97 -3 -58 -16 -137
-31 -193 -15 -52 -43 -156 -63 -230 l-37 -135 0 -245 c-1 -211 2 -264 22 -380
21 -124 33 -162 47 -149 7 8 23 141 29 249 8 132 43 399 66 495 41 176 110
322 207 442 l46 57 -10 50 c-39 183 -193 399 -333 469 -79 39 -108 36 -168
-18z"/>
<path d="M3195 6666 c-65 -20 -181 -85 -231 -129 -152 -133 -253 -409 -289
-787 -3 -36 -8 -82 -11 -102 -5 -30 -3 -38 10 -38 9 0 16 6 16 13 0 26 109
115 201 162 131 68 195 110 263 174 139 131 209 309 223 565 8 147 3 156 -80
155 -34 0 -80 -6 -102 -13z"/>
<path d="M3745 6130 c-178 -21 -352 -114 -517 -276 -144 -142 -194 -226 -308
-513 -44 -112 -88 -217 -97 -234 l-16 -31 29 19 c149 97 266 217 417 430 200
281 287 385 324 385 42 0 26 -39 -65 -159 -49 -64 -130 -177 -182 -251 -103
-150 -152 -212 -219 -282 -25 -27 -40 -48 -33 -48 13 0 125 41 180 67 109 50
259 178 338 290 51 71 105 183 128 266 50 179 45 167 73 167 25 0 26 -1 20
-52 -18 -152 -81 -320 -161 -432 -69 -96 -210 -224 -307 -278 -87 -48 -150
-71 -308 -112 -71 -18 -109 -35 -162 -71 -63 -43 -145 -123 -135 -132 7 -7
353 76 419 101 215 82 417 228 534 386 79 106 157 293 182 434 16 88 14 240
-4 281 -8 21 -25 39 -40 45 -15 6 -27 9 -28 9 -1 -1 -29 -5 -62 -9z"/>
<path d="M1977 5892 c-37 -41 -25 -59 156 -237 194 -190 207 -209 257 -385 35
-123 56 -240 65 -365 7 -94 -11 -374 -24 -388 -4 -4 -27 41 -51 100 -39 98
-44 119 -51 233 -11 164 -21 206 -79 325 -55 114 -147 234 -242 316 -274 239
-518 355 -775 366 -183 9 -199 -8 -190 -185 7 -137 39 -249 116 -407 112 -228
260 -388 454 -494 80 -43 153 -65 350 -106 191 -39 241 -61 321 -140 61 -61
117 -167 124 -233 6 -71 -51 -599 -74 -674 -3 -10 -9 -18 -13 -18 -11 0 -43
113 -85 295 -39 168 -56 221 -91 281 -32 55 -126 139 -171 154 -32 11 -39 10
-63 -7 -70 -53 -68 -238 4 -372 40 -73 100 -131 215 -207 115 -75 190 -161
190 -217 0 -38 -29 -276 -36 -297 -3 -9 -31 35 -67 105 -68 130 -134 236 -206
330 -62 81 -189 214 -221 230 -43 22 -171 39 -203 26 -36 -14 -29 -25 41 -60
137 -69 243 -175 377 -376 135 -203 224 -392 243 -520 6 -38 14 -144 17 -235
4 -91 8 -181 10 -200 8 -79 17 -270 12 -270 -2 0 -35 54 -73 121 -85 150 -126
199 -163 199 -33 0 -51 -16 -51 -46 0 -12 34 -72 74 -133 85 -126 206 -358
230 -441 27 -89 127 -1061 114 -1101 -2 -6 -24 22 -50 63 -91 143 -161 203
-208 178 -35 -19 -18 -70 40 -125 62 -60 205 -309 229 -400 8 -33 34 -197 55
-353 6 -43 22 -62 51 -62 42 0 50 24 50 154 0 68 5 138 12 161 7 22 42 89 78
150 68 115 77 148 46 164 -26 15 -58 -12 -112 -95 l-44 -66 -7 58 c-8 63 -32
548 -30 599 1 17 -5 66 -13 110 -8 44 -24 161 -36 261 l-22 181 23 69 c33 100
169 379 235 480 126 193 235 304 458 463 l89 64 56 -55 c144 -139 303 -196
516 -185 177 9 302 51 456 152 210 137 375 334 447 532 46 127 26 165 -108
208 -325 102 -703 41 -984 -160 -33 -24 -112 -96 -175 -160 -136 -138 -221
-210 -390 -331 -155 -110 -268 -218 -345 -326 -32 -46 -62 -87 -67 -93 -5 -5
-5 54 -2 132 6 123 5 145 -10 167 -20 31 -49 33 -76 6 -17 -17 -20 -33 -20
-112 0 -105 -31 -338 -56 -425 -21 -73 -54 -153 -64 -153 -19 0 -35 187 -50
585 -12 323 3 584 41 730 28 105 154 313 361 594 55 75 98 143 98 155 0 30
-30 56 -63 56 -32 0 -77 -59 -231 -297 -54 -84 -102 -153 -108 -153 -6 0 -7
16 -4 38 13 88 27 211 46 412 11 118 27 275 36 348 16 129 18 134 60 195 62
88 69 109 98 265 14 79 46 197 72 273 59 172 60 180 36 203 -26 23 -50 18 -74
-15 -30 -40 -93 -241 -123 -389 -30 -155 -43 -200 -56 -200 -5 0 -9 13 -9 28
0 55 -41 253 -76 369 -45 148 -128 323 -154 323 -10 0 -81 63 -159 140 -147
146 -170 160 -204 122z m-650 -225 c34 -45 96 -128 138 -183 71 -96 193 -222
249 -259 14 -10 58 -29 98 -44 39 -14 73 -32 76 -40 7 -20 -35 -8 -133 38 -79
37 -158 101 -258 208 -50 55 -247 333 -247 350 0 26 16 11 77 -70z m-112 -141
c40 -103 115 -242 168 -311 122 -160 251 -247 465 -309 51 -15 121 -39 155
-53 62 -25 170 -96 198 -129 13 -16 12 -16 -10 -5 -13 7 -44 26 -70 42 -25 17
-125 55 -221 85 -223 71 -296 106 -392 183 -133 107 -263 305 -329 498 -55
165 -28 164 36 -1z m534 -78 c62 -132 67 -148 46 -148 -18 0 -100 162 -111
218 -13 64 17 32 65 -70z m252 -120 c25 -49 71 -119 149 -228 30 -41 64 -100
77 -130 23 -57 30 -120 13 -120 -5 0 -10 6 -10 13 0 28 -71 157 -135 245 -67
93 -135 218 -135 247 0 28 19 15 41 -27z m2419 -1848 c0 -11 -5 -20 -10 -20
-6 0 -88 -13 -183 -29 -195 -34 -367 -81 -513 -141 -54 -23 -106 -44 -114 -47
-10 -4 -9 1 5 16 31 35 207 116 335 154 113 34 163 44 345 71 129 20 135 19
135 -4z m220 -40 c0 -5 -26 -34 -57 -65 -171 -167 -422 -257 -757 -271 -176
-7 -368 9 -345 30 2 2 87 6 189 9 328 11 543 54 724 143 74 37 179 108 210
143 20 22 36 27 36 11z m-200 -397 c-1 -24 -82 -81 -173 -123 -106 -48 -204
-64 -372 -64 -206 1 -319 26 -461 101 -43 23 -71 50 -61 59 3 3 32 -6 63 -21
146 -69 288 -97 486 -94 190 2 382 52 471 123 33 26 47 32 47 19z"/>
<path d="M3795 5044 c-455 -82 -706 -326 -772 -749 -11 -73 -13 -141 -9 -250
5 -156 18 -230 75 -425 17 -58 31 -117 31 -132 0 -37 15 -35 29 3 12 34 18 98
26 269 16 340 81 602 198 798 30 50 49 63 62 42 4 -6 -8 -34 -24 -64 -69 -119
-114 -257 -149 -451 -31 -170 -50 -379 -34 -389 5 -3 22 21 39 52 122 231 169
315 212 372 71 95 242 257 347 328 62 43 149 120 275 247 101 102 190 185 197
185 6 0 12 -6 12 -14 0 -14 -193 -236 -233 -267 -42 -34 -12 -38 73 -10 171
56 326 151 411 253 l43 51 -29 23 c-68 54 -212 107 -369 134 -84 14 -316 11
-411 -6z m195 -116 c0 -7 -19 -40 -41 -73 -22 -33 -59 -99 -82 -147 -40 -85
-67 -111 -67 -66 0 12 23 64 51 117 69 129 140 215 139 169z"/>
<path d="M645 5028 c-22 -3 -60 -4 -84 -1 -50 7 -51 14 14 -87 373 -575 457
-662 875 -907 130 -76 124 -75 116 -23 -13 81 -155 338 -258 468 -112 140
-346 315 -535 398 -45 20 -54 28 -51 47 5 33 38 27 148 -28 239 -117 424 -269
546 -450 76 -113 158 -265 199 -369 33 -85 69 -124 82 -90 9 25 -32 285 -62
385 -86 287 -270 497 -526 600 -142 57 -330 80 -464 57z"/>
<path d="M354 4974 c-4 -15 -4 -79 -1 -143 19 -401 256 -704 647 -828 88 -27
364 -53 401 -37 24 11 25 11 -141 114 -246 154 -369 282 -620 650 -184 269
-185 270 -236 270 -39 0 -44 -3 -50 -26z"/>
<path d="M4564 4767 c-129 -120 -207 -165 -425 -247 -69 -27 -160 -64 -200
-83 -93 -43 -224 -139 -312 -230 -89 -92 -168 -207 -142 -207 3 0 29 17 58 38
149 110 314 189 547 262 91 28 201 63 245 77 120 38 212 90 284 161 l64 62 -6
98 c-6 100 -14 142 -27 142 -3 0 -42 -33 -86 -73z"/>
<path d="M4585 4434 c-81 -57 -152 -89 -295 -134 -374 -115 -532 -182 -680
-289 -227 -162 -327 -324 -443 -721 -91 -309 -87 -337 23 -156 142 235 274
375 427 453 43 22 148 66 233 98 195 72 323 136 425 212 173 130 307 311 364
497 11 37 21 70 21 72 0 12 -31 -1 -75 -32z"/>
<path d="M567 3870 c-163 -26 -263 -65 -314 -123 -61 -69 -52 -160 32 -332 30
-60 78 -141 107 -180 129 -171 355 -361 548 -459 261 -134 613 -226 860 -226
68 0 87 15 32 25 -180 34 -576 211 -722 323 -62 48 -76 63 -78 90 -5 48 25 42
113 -23 90 -67 245 -150 380 -203 104 -41 319 -112 341 -112 7 0 -47 57 -118
128 -163 159 -300 326 -296 362 6 55 40 30 195 -146 167 -189 338 -342 359
-321 8 7 -22 137 -45 197 -31 82 -106 175 -257 317 -143 135 -277 241 -391
309 -52 31 -69 47 -71 66 -8 64 61 40 245 -89 100 -69 163 -123 316 -272 164
-159 221 -250 255 -409 11 -52 22 -96 25 -98 2 -3 7 25 11 61 14 140 -40 339
-131 488 -189 305 -510 506 -961 601 -136 29 -340 41 -435 26z m174 -237 c76
-98 185 -201 277 -264 82 -54 105 -89 61 -89 -53 0 -283 197 -372 319 -83 112
-52 143 34 34z"/>
<path d="M2794 3623 c-125 -129 -234 -375 -234 -530 0 -111 30 -168 117 -219
42 -24 113 -48 113 -38 0 3 -18 30 -41 60 -83 113 -102 196 -75 329 10 51 33
114 63 174 49 96 74 124 92 106 15 -15 39 -191 46 -340 3 -71 11 -154 16 -183
10 -52 12 -53 37 -47 15 4 27 7 28 8 0 1 8 29 18 62 9 33 25 85 34 115 11 38
16 93 16 180 0 118 -2 130 -33 208 -60 151 -124 188 -197 115z"/>
<path d="M2767 3349 c-47 -104 -61 -181 -46 -264 13 -70 28 -102 83 -172 39
-50 61 -68 51 -40 -11 29 -26 163 -35 307 -6 85 -14 171 -19 190 l-8 35 -26
-56z"/>
<path d="M738 2594 c-145 -154 -78 -557 148 -894 194 -289 498 -504 799 -564
84 -16 326 -39 334 -30 9 8 -13 22 -144 90 -384 198 -562 359 -695 633 -65
131 -124 353 -137 515 -6 63 -5 68 13 64 16 -3 24 -28 50 -153 48 -238 84
-346 154 -465 134 -229 278 -354 605 -525 72 -37 158 -87 192 -111 34 -24 66
-44 72 -44 25 0 8 53 -41 126 -64 95 -148 182 -249 256 -250 184 -379 350
-438 568 -28 99 -28 150 -1 150 14 0 21 -9 26 -37 42 -248 166 -428 423 -612
146 -105 243 -215 326 -368 30 -56 52 -72 62 -46 9 22 -14 238 -38 355 -68
342 -258 648 -507 817 -197 133 -622 285 -837 298 -89 5 -90 5 -117 -23z m932
-436 c108 -264 168 -376 247 -460 36 -37 50 -59 43 -63 -17 -10 -57 22 -113
91 -73 89 -207 375 -207 441 0 21 20 15 30 -9z"/>
<path d="M4016 2553 c-1 -2 -49 -5 -107 -8 -57 -2 -117 -7 -134 -10 -264 -47
-408 -91 -579 -177 -173 -86 -303 -195 -416 -350 -68 -92 -173 -300 -189 -373
-17 -82 -24 -165 -14 -165 16 0 63 74 63 98 0 39 36 118 92 203 166 251 424
435 751 533 145 44 182 49 182 22 0 -14 -15 -22 -70 -36 -324 -83 -665 -310
-817 -545 -57 -87 -76 -130 -65 -141 3 -4 32 10 65 30 76 48 200 100 387 166
177 62 274 105 371 166 111 69 266 242 368 412 25 42 44 62 57 62 10 0 19 -5
19 -10 0 -30 -98 -189 -180 -290 -27 -35 -50 -68 -50 -73 0 -17 52 3 205 77
83 41 197 105 255 144 105 71 240 189 240 210 0 26 -217 61 -363 59 -37 -1
-69 -3 -71 -4z"/>
<path d="M4420 2384 c-200 -173 -368 -276 -640 -392 -52 -22 -158 -70 -235
-107 -133 -64 -270 -119 -403 -164 -96 -33 -263 -106 -332 -147 -64 -38 -139
-99 -130 -107 6 -5 340 -64 445 -78 82 -11 236 -6 329 12 85 16 176 48 293
104 355 170 626 472 737 823 26 84 32 122 19 121 -5 0 -42 -29 -83 -65z"/>
<path d="M3130 1244 c-129 -15 -266 -80 -341 -162 -59 -65 -107 -154 -116
-217 -8 -62 9 -59 95 15 80 69 189 135 282 173 155 62 330 90 338 55 2 -13 -6
-18 -35 -23 -81 -13 -200 -48 -277 -82 -117 -52 -266 -154 -266 -183 0 -15
188 -12 272 4 205 39 405 164 465 291 l18 37 -31 27 c-19 17 -56 34 -95 44
-65 16 -246 28 -309 21z"/>
</g>
</svg>