<svg fill="#000000" version="1.1" id="Capa_1" xmlns="http://www.w3.org/2000/svg" xmlns:xlink="http://www.w3.org/1999/xlink" viewBox="0 0 583.756 583.756" xml:space="preserve"><g id="SVGRepo_bgCarrier" stroke-width="0"></g><g id="SVGRepo_tracerCarrier" stroke-linecap="round" stroke-linejoin="round"></g><g id="SVGRepo_iconCarrier"> <g> <g> <path d="M368.52,507.871c0-10.59-8.568-19.158-19.158-19.158H234.399c-10.591,0-19.159,8.568-19.159,19.158 c0,10.592,8.568,19.158,19.159,19.158h114.958C359.947,527.029,368.52,518.463,368.52,507.871z"></path> <path d="M128.432,113.428l-17.681-10.22c-4.645-2.687-10.584-1.096-13.262,3.553l-9.455,16.398 c-2.681,4.648-1.086,10.587,3.562,13.271l17.559,10.125c4.648,2.681,10.187,0.875,12.653-3.889 c2.913-5.627,6.099-11.077,9.541-16.365C134.273,121.8,133.077,116.112,128.432,113.428z"></path> <path d="M282.276,39.034c3.152-0.401,6.328-0.716,9.603-0.716c3.274,0,6.454,0.315,9.602,0.716 c5.279,0.67,9.557-3.118,9.557-8.482V9.716c0-5.364-4.348-9.716-9.715-9.716h-18.89c-5.364,0-9.715,4.349-9.715,9.716v20.835 C272.72,35.916,276.995,39.704,282.276,39.034z"></path> <path d="M188.258,69.386c5.291-3.442,10.74-6.631,16.371-9.544c4.765-2.466,6.567-8.001,3.89-12.65L198.389,29.63 c-2.68-4.648-8.623-6.243-13.268-3.562l-16.398,9.456c-4.648,2.68-6.239,8.617-3.553,13.262l10.22,17.681 C178.074,71.115,183.759,72.314,188.258,69.386z"></path> <path d="M461.984,142.667c2.469,4.761,8.008,6.567,12.652,3.883l17.527-10.12c4.646-2.684,6.24-8.626,3.562-13.274l-9.455-16.398 c-2.682-4.648-8.617-6.239-13.262-3.556l-17.682,10.221c-4.645,2.687-5.842,8.375-2.91,12.87 C455.867,131.586,459.064,137.039,461.984,142.667z"></path> <path d="M395.49,69.355c4.502,2.922,10.193,1.723,12.877-2.922l10.189-17.641c2.684-4.645,1.092-10.588-3.553-13.274 l-16.334-9.437c-4.646-2.684-10.586-1.092-13.266,3.556l-10.129,17.562c-2.68,4.648-0.881,10.189,3.883,12.656 C384.773,62.755,390.217,65.931,395.49,69.355z"></path> <path d="M92.51,210.758H71.675c-5.364,0-9.716,4.348-9.716,9.715v18.89c0,5.364,4.349,9.715,9.716,9.715h20.912 c5.364,0,9.104-4.272,8.421-9.55c-0.41-3.173-0.725-6.362-0.725-9.608c0-3.277,0.315-6.451,0.716-9.603 C101.663,215.036,97.877,210.758,92.51,210.758z"></path> <path d="M521.797,239.363v-18.89c0-5.364-4.348-9.715-9.715-9.715h-20.836c-5.363,0-9.152,4.278-8.482,9.556 c0.402,3.152,0.717,6.328,0.717,9.603c0,3.247-0.314,6.435-0.725,9.608c-0.684,5.281,3.053,9.553,8.42,9.553h20.912 C517.447,249.078,521.797,244.73,521.797,239.363z"></path> <path d="M458.475,348.203l14.535,8.395c4.645,2.684,10.586,1.092,13.268-3.557l9.445-16.365c2.684-4.646,1.09-10.584-3.561-13.264 l-17.969-10.355c-4.648-2.678-10.043-0.816-12.152,4.119c-2.496,5.844-5.092,11.643-7.789,17.404 C451.979,339.439,453.826,345.52,458.475,348.203z"></path> <path d="M97.479,353.041c2.684,4.648,8.626,6.242,13.274,3.562l14.263-8.223c4.648-2.68,6.512-8.766,4.253-13.633 c-2.687-5.791-5.275-11.621-7.751-17.486c-2.087-4.943-7.457-6.812-12.105-4.131l-17.821,10.277 c-4.648,2.682-6.243,8.621-3.559,13.268L97.479,353.041z"></path> <path d="M333.004,545.543h-82.252c-10.56,0-19.106,8.543-19.106,19.107c0,10.559,8.546,19.105,19.106,19.105h82.252 c10.561,0,19.107-8.543,19.107-19.105C352.111,554.09,343.564,545.543,333.004,545.543z"></path> <path d="M442.098,226.679c0-82.831-67.389-150.218-150.219-150.218c-82.831,0-150.218,67.387-150.218,150.218 c0,37.751,19.431,76.767,38.225,114.499c17.25,34.633,35.086,70.445,37.993,105.463c0.321,3.867,3.43,6.896,7.075,6.896h133.85 c3.652,0,6.748-3.021,7.051-6.885c2.861-36.336,20.965-72.402,38.471-107.279C422.895,302.381,442.098,264.127,442.098,226.679z M375.557,324.936c-13.625,27.08-27.711,55.082-35.703,84.709c-1.77,6.559-8.354,11.693-14.992,11.693h-66.153 c-6.628,0-13.238-5.123-15.049-11.662c-7.913-28.576-21.671-56.162-34.976-82.838c-17.935-36.055-34.823-70.015-34.823-100.159 c0-65.077,52.944-118.018,118.018-118.018c65.075,0,118.018,52.944,118.018,118.018c0,29.798-16.646,62.981-34.27,98.112 L375.557,324.936z"></path> <path d="M329.918,145.451L329.918,145.451h-0.004c-2.58,0-5.162,0.333-7.68,0.988c-50.448,13.115-82.354,35.484-94.839,66.485 c-14.437,35.848,2.69,70.138,10.725,83.22c1.628,2.652,3.547,4.957,5.695,6.881c-1.842,8.672-3.286,16.68-4.385,23.383 c-1.436,8.77,0.994,17.631,6.671,24.311c5.688,6.695,14.066,10.535,22.99,10.535h11.049c17.079,0,30.971-13.893,30.971-30.969 V310.1c11.211-3.572,20.979-10.109,28.764-19.341c25.842-30.634,23.654-82.219,19.758-118.352 C357.977,157.036,345.201,145.451,329.918,145.451z M293.115,288.702c-3.578,0.223-6.485,2.916-6.485,6.499 c0,14.123,0,27.479,0,35.08c0,3.584-2.904,6.49-6.49,6.49h-11.05c-3.583,0-6.08-2.877-5.501-6.414 c3.001-18.336,12.916-71.16,30.776-94.593c1.633-2.139,1.598-3.703,0.111-3.703c-0.496,0-1.15,0.174-1.961,0.557 c-9.649,4.575-27.501,18.375-29.695,49.609c-0.141,2.014-0.747,3.075-1.585,3.075c-0.651,0-1.441-0.64-2.258-1.977 c-11.753-19.134-41.931-84.254,69.41-113.199c0.521-0.135,1.031-0.199,1.527-0.199c2.801,0,5.053,2.068,5.377,5.098 C338.004,200.176,346.662,285.382,293.115,288.702z"></path> </g> </g> </g></svg>