<svg viewBox="0 0 512 512" version="1.1" xml:space="preserve" xmlns="http://www.w3.org/2000/svg" xmlns:xlink="http://www.w3.org/1999/xlink" fill="#000000"><g id="SVGRepo_bgCarrier" stroke-width="0"></g><g id="SVGRepo_tracerCarrier" stroke-linecap="round" stroke-linejoin="round"></g><g id="SVGRepo_iconCarrier"> <style type="text/css"> .st0{display:none;} .st1{fill:#000000;} </style> <g class="st0" id="Layer_1"></g> <g id="Layer_2"> <g> <path class="st1" d="M198.29,462.06c0.03,0.06,0.07,0.12,0.1,0.19c0.05,0.1,0.1,0.2,0.16,0.3c0.36,0.72,0.74,1.44,1.12,2.16l0,0 c1.07,2.08,3.16,3.56,5.61,3.77c0.09,0.01,0.18,0.01,0.26,0.01c0.11,0.01,0.23,0.02,0.35,0.02c0,0,0,0,0,0c0,0,0.01,0,0.01,0 c0.2,0,0.4-0.01,0.59-0.03c0.04,0,0.07,0,0.11-0.01c0.19-0.02,0.39-0.05,0.58-0.09c0.04-0.01,0.08-0.01,0.12-0.02 c0.19-0.04,0.38-0.09,0.57-0.15c0.03-0.01,0.07-0.02,0.1-0.03c0.2-0.06,0.4-0.14,0.59-0.22c0.02-0.01,0.03-0.01,0.05-0.02 c0.95-0.4,1.82-1,2.53-1.81l0.33-0.37c0.33-0.38,0.66-0.75,0.99-1.13c0.01-0.01,0.01-0.02,0.02-0.03 c36.87-41.24,76.14-69.28,110.79-94.03c12.83-9.16,24.94-17.81,36.41-26.71c0,0,0,0,0,0c28.85-22.38,57.59-48.79,72.46-90.14 c0,0,0,0,0,0c5.41-15.03,8.7-31.07,10.06-49.05c4.12-54.71-7.19-109.16-32.72-157.45c-1.07-2.02-3.05-3.39-5.31-3.67 c-2.26-0.29-4.52,0.55-6.06,2.24c-7.22,7.95-15.45,15.89-25.18,24.3c-2.93,2.53-3.25,6.95-0.72,9.87 c2.53,2.93,6.95,3.25,9.87,0.72c7.2-6.21,13.63-12.21,19.46-18.15c21.15,43.73,30.37,92.3,26.7,141.09 c-1.06,14-3.36,26.69-7.01,38.58c-0.54-0.2-1.09-0.38-1.64-0.57c-0.49-0.17-0.98-0.34-1.48-0.51c-1.24-0.42-2.48-0.82-3.72-1.21 c-0.23-0.07-0.47-0.15-0.7-0.23c-1.46-0.45-2.94-0.89-4.41-1.31c-0.47-0.13-0.95-0.26-1.42-0.39c-1.04-0.29-2.08-0.57-3.12-0.84 c-0.54-0.14-1.09-0.28-1.63-0.42c-1.04-0.26-2.08-0.51-3.13-0.76c-0.48-0.11-0.97-0.23-1.45-0.34c-1.49-0.34-2.98-0.66-4.47-0.97 c-0.25-0.05-0.51-0.1-0.76-0.15c-1.27-0.26-2.53-0.5-3.8-0.74c-0.54-0.1-1.07-0.19-1.61-0.29c-1.01-0.18-2.02-0.35-3.04-0.52 c-0.56-0.09-1.12-0.18-1.67-0.27c-1.09-0.17-2.17-0.33-3.26-0.49c-0.44-0.06-0.88-0.13-1.32-0.19c-1.48-0.21-2.97-0.4-4.45-0.58 c-0.43-0.05-0.87-0.1-1.3-0.15c-1.09-0.13-2.17-0.25-3.25-0.36c-0.56-0.06-1.12-0.11-1.68-0.17c-0.99-0.1-1.97-0.18-2.96-0.27 c-0.54-0.05-1.08-0.09-1.62-0.14c-1.18-0.09-2.37-0.18-3.54-0.26c-0.31-0.02-0.62-0.05-0.93-0.07c-1.45-0.09-2.89-0.17-4.33-0.24 c-0.5-0.02-1-0.04-1.5-0.06c-0.98-0.04-1.97-0.08-2.94-0.11c-0.55-0.02-1.1-0.03-1.65-0.05c-0.97-0.03-1.93-0.05-2.89-0.06 c-0.49-0.01-0.98-0.02-1.47-0.02c-1.4-0.02-2.79-0.02-4.17-0.02c-0.25,0-0.5,0.01-0.75,0.01c-1.16,0.01-2.32,0.02-3.46,0.04 c-0.5,0.01-1,0.02-1.49,0.03c-0.91,0.02-1.82,0.04-2.72,0.07c-0.51,0.02-1.01,0.03-1.52,0.05c-0.97,0.04-1.93,0.08-2.89,0.12 c-0.38,0.02-0.77,0.03-1.15,0.05c-1.31,0.07-2.6,0.14-3.88,0.23c-0.35,0.02-0.69,0.05-1.03,0.07c-0.96,0.07-1.91,0.14-2.85,0.21 c-0.46,0.04-0.91,0.07-1.36,0.11c-0.85,0.07-1.69,0.15-2.53,0.23c-0.43,0.04-0.85,0.08-1.27,0.12c-1.01,0.1-2,0.2-2.98,0.31 c-0.22,0.02-0.44,0.05-0.65,0.07c-1.18,0.13-2.34,0.28-3.48,0.42c-0.35,0.04-0.68,0.09-1.02,0.14c-0.53,0.07-1.06,0.14-1.58,0.21 c0.02-0.02,0.04-0.04,0.06-0.06c1.98-1.97,4-3.92,6.04-5.86c0.63-0.59,1.26-1.17,1.89-1.76c1.46-1.36,2.93-2.71,4.41-4.04 c0.74-0.66,1.48-1.32,2.23-1.98c1.48-1.31,2.98-2.61,4.5-3.9c0.68-0.58,1.36-1.17,2.05-1.74c2.18-1.83,4.38-3.64,6.62-5.42 c0,0,0,0,0,0c2.1-1.67,4.23-3.33,6.33-4.93c22.06-16.78,39.33-34.34,51.33-52.19c2.16-3.21,1.3-7.56-1.9-9.71 c-3.21-2.16-7.56-1.3-9.71,1.9c-10.65,15.84-25.96,31.57-45.51,46.79c-0.06-0.28-0.12-0.57-0.17-0.86 c-0.07-0.32-0.13-0.64-0.2-0.97c-0.07-0.32-0.14-0.64-0.2-0.97c-0.07-0.34-0.15-0.68-0.22-1.03c-0.07-0.33-0.15-0.66-0.22-1 c-0.08-0.35-0.16-0.7-0.24-1.06c-0.08-0.34-0.16-0.69-0.24-1.04c-0.08-0.36-0.17-0.71-0.25-1.08c-0.09-0.36-0.18-0.73-0.26-1.09 c-0.09-0.36-0.17-0.72-0.26-1.09c-0.1-0.39-0.2-0.79-0.3-1.19c-0.11-0.43-0.22-0.86-0.33-1.29c-0.17-0.65-0.34-1.3-0.52-1.97 c-0.1-0.37-0.2-0.74-0.3-1.11c-0.11-0.41-0.22-0.81-0.34-1.23c-0.11-0.38-0.22-0.76-0.32-1.14c-0.12-0.41-0.23-0.82-0.35-1.23 c-0.11-0.39-0.23-0.79-0.35-1.19c-0.12-0.41-0.24-0.81-0.37-1.22c-0.12-0.4-0.25-0.81-0.37-1.21c-0.13-0.41-0.26-0.82-0.39-1.24 c-0.13-0.41-0.26-0.81-0.39-1.22c-0.13-0.42-0.27-0.83-0.41-1.25c-0.14-0.41-0.28-0.83-0.42-1.24c-0.14-0.42-0.28-0.84-0.43-1.26 c-0.14-0.42-0.29-0.83-0.44-1.25c-0.15-0.42-0.3-0.85-0.46-1.28c-0.15-0.41-0.3-0.83-0.45-1.25c-0.16-0.43-0.32-0.87-0.49-1.3 c-0.16-0.41-0.31-0.82-0.47-1.24c-0.17-0.44-0.34-0.88-0.52-1.32c-0.16-0.41-0.32-0.82-0.49-1.23c-0.18-0.45-0.37-0.9-0.56-1.35 c-0.17-0.4-0.33-0.8-0.5-1.2c-0.2-0.47-0.4-0.94-0.61-1.41c-0.17-0.38-0.33-0.76-0.5-1.15c-0.23-0.52-0.47-1.04-0.7-1.56 c-0.15-0.33-0.3-0.66-0.45-0.99c-0.39-0.84-0.78-1.67-1.19-2.51c-0.12-0.24-0.24-0.48-0.35-0.71c-0.3-0.61-0.6-1.21-0.91-1.82 c-0.17-0.33-0.34-0.66-0.52-0.99c-0.26-0.51-0.53-1.02-0.8-1.52c-0.19-0.36-0.39-0.71-0.58-1.07c-0.21-0.38-0.41-0.76-0.62-1.13 c2.79-2.01,5.58-4.01,8.36-6.01c7.25-5.21,14.75-10.59,22.01-15.91c3.12-2.29,3.79-6.67,1.5-9.78c-2.29-3.12-6.67-3.79-9.78-1.5 c-7.2,5.28-14.67,10.64-21.89,15.83c-4.52,3.25-9.06,6.5-13.58,9.78c0,0,0,0,0,0c-32.06,23.21-65.47,48.51-90.7,80.1 c-11.88,14.87-20.93,29.81-27.67,45.69c0,0,0,0,0,0.01c-7.41,17.44-11.91,36.1-13.37,55.46c-2.36,31.41,0.37,62.76,7.96,92.91 c-11.08-14.58-22.24-27.69-32.74-40.01c-37.8-44.37-67.65-79.42-57.06-141.11c6.45-37.55,22.41-72.53,46.36-101.78 c13.42,22.76,29.48,41.87,47.76,63.61c2.93,3.49,5.93,7.05,8.98,10.71c2.48,2.97,6.89,3.37,9.86,0.89 c2.97-2.48,3.37-6.89,0.89-9.86c-3.06-3.67-6.07-7.25-9.01-10.75c-20.08-23.9-37.43-44.54-51.11-70.05 c-1.08-2.01-3.07-3.37-5.33-3.64c-2.27-0.27-4.52,0.58-6.04,2.28c-29.28,32.63-48.7,72.83-56.15,116.23 c-11.7,68.15,21.62,107.26,60.2,152.55C153.3,394.82,177.94,423.74,198.29,462.06z M353.92,330.61c-0.5-0.14-1.01-0.27-1.51-0.4 c-0.45-0.12-0.9-0.24-1.34-0.36c-0.61-0.16-1.23-0.3-1.84-0.45c-0.42-0.1-0.83-0.2-1.25-0.3c-0.7-0.16-1.39-0.31-2.09-0.46 c-0.34-0.07-0.68-0.15-1.02-0.22c-2.08-0.43-4.18-0.81-6.28-1.15c-0.35-0.06-0.69-0.1-1.04-0.16c-0.71-0.11-1.41-0.22-2.12-0.32 c-0.41-0.06-0.83-0.11-1.24-0.16c-0.64-0.09-1.28-0.17-1.92-0.25c-0.44-0.05-0.89-0.1-1.33-0.15c-0.61-0.07-1.22-0.14-1.84-0.21 c-0.46-0.05-0.92-0.09-1.39-0.13c-0.59-0.06-1.19-0.12-1.78-0.17c-0.48-0.04-0.95-0.08-1.43-0.11c-0.58-0.05-1.16-0.09-1.74-0.13 c-0.48-0.03-0.96-0.06-1.44-0.09c-0.58-0.04-1.15-0.07-1.73-0.1c-0.48-0.03-0.97-0.05-1.45-0.07c-0.57-0.03-1.14-0.05-1.7-0.07 c-0.49-0.02-0.97-0.03-1.46-0.05c-0.56-0.02-1.13-0.03-1.69-0.05c-0.49-0.01-0.97-0.02-1.46-0.02c-0.56-0.01-1.11-0.02-1.67-0.02 c-0.49,0-0.97,0-1.46,0c-0.55,0-1.1,0-1.65,0c-0.49,0-0.98,0.01-1.46,0.02c-0.54,0.01-1.09,0.02-1.63,0.03 c-0.49,0.01-0.97,0.02-1.46,0.03c-0.54,0.01-1.08,0.03-1.61,0.05c-0.49,0.02-0.98,0.03-1.46,0.05c-0.53,0.02-1.06,0.04-1.58,0.07 c-0.49,0.02-0.97,0.05-1.45,0.07c-0.53,0.03-1.05,0.06-1.57,0.09c-0.48,0.03-0.96,0.06-1.43,0.09c-0.52,0.03-1.04,0.07-1.55,0.1 c-0.48,0.03-0.95,0.07-1.42,0.1c-0.51,0.04-1.02,0.08-1.53,0.12c-0.47,0.04-0.94,0.08-1.41,0.12c-0.51,0.04-1.01,0.09-1.51,0.14 c-0.46,0.04-0.93,0.09-1.39,0.13c-0.5,0.05-0.99,0.1-1.49,0.15c-0.46,0.05-0.92,0.09-1.37,0.14c-0.49,0.05-0.98,0.11-1.47,0.16 c-0.45,0.05-0.89,0.1-1.34,0.15c-0.49,0.06-0.98,0.12-1.47,0.18c-0.43,0.05-0.87,0.11-1.3,0.16c-0.49,0.06-0.97,0.13-1.45,0.19 c-0.43,0.06-0.85,0.11-1.28,0.17c-0.47,0.06-0.94,0.13-1.4,0.2c-0.42,0.06-0.84,0.12-1.26,0.18c-0.48,0.07-0.94,0.14-1.42,0.21 c-0.39,0.06-0.79,0.12-1.18,0.18c-0.51,0.08-1.02,0.16-1.52,0.24c-0.34,0.05-0.68,0.11-1.02,0.16c-0.57,0.09-1.13,0.19-1.69,0.28 c-0.27,0.04-0.54,0.09-0.8,0.13c-0.82,0.14-1.63,0.28-2.42,0.43c-0.48,0.09-0.93,0.22-1.36,0.39c-3.02,1.21-4.89,4.41-4.29,7.74 c0.39,2.14,1.71,3.88,3.47,4.86c1.37,0.77,3,1.08,4.66,0.79c1.18-0.21,2.39-0.42,3.62-0.63c0.19-0.03,0.38-0.06,0.58-0.1 c1.2-0.2,2.42-0.39,3.66-0.58c0.2-0.03,0.41-0.06,0.62-0.09c1.29-0.19,2.6-0.38,3.93-0.56c0.06-0.01,0.13-0.02,0.19-0.03 c1.33-0.18,2.68-0.35,4.05-0.52c0.13-0.02,0.26-0.03,0.39-0.05c1.36-0.16,2.75-0.32,4.14-0.46c0.21-0.02,0.42-0.04,0.63-0.06 c1.41-0.14,2.83-0.28,4.27-0.4c0.13-0.01,0.26-0.02,0.39-0.03c1.47-0.12,2.95-0.23,4.45-0.33c0.04,0,0.08-0.01,0.12-0.01 c1.48-0.1,2.98-0.18,4.49-0.24c0.21-0.01,0.43-0.02,0.64-0.03c1.47-0.06,2.96-0.11,4.45-0.15c0.2,0,0.39-0.01,0.59-0.01 c3.08-0.06,6.19-0.06,9.32,0.02c0.2,0.01,0.41,0.01,0.61,0.01c1.5,0.04,3.01,0.1,4.52,0.18c0.24,0.01,0.49,0.03,0.73,0.04 c1.54,0.09,3.07,0.19,4.61,0.32c0.1,0.01,0.2,0.02,0.3,0.03c1.5,0.13,3,0.28,4.5,0.45c0.18,0.02,0.35,0.04,0.53,0.06 c1.5,0.17,2.99,0.37,4.49,0.59c0.27,0.04,0.54,0.08,0.81,0.12c1.48,0.22,2.96,0.47,4.43,0.74c0.07,0.01,0.14,0.03,0.2,0.04 c-7.78,5.76-15.89,11.55-24.3,17.56c-33.54,23.96-71.34,50.97-107.58,90.06c-21.07-43.65-30.27-92.19-26.6-140.88 c1.16-15.42,4.41-30.35,9.68-44.47c0.35,0.17,0.7,0.34,1.04,0.51c0.19,0.09,0.38,0.19,0.57,0.28c0.28,0.14,0.55,0.28,0.82,0.42 c0.43,0.22,0.87,0.45,1.29,0.68c0.04,0.02,0.09,0.05,0.13,0.07c0.34,0.18,0.67,0.37,1.01,0.55c0.44,0.25,0.89,0.49,1.32,0.74 c0.34,0.19,0.67,0.39,1.01,0.59c0.43,0.25,0.85,0.51,1.27,0.76c0.29,0.18,0.57,0.35,0.86,0.53c0.06,0.04,0.12,0.08,0.18,0.11 c0.39,0.25,0.78,0.49,1.16,0.74c0.25,0.16,0.5,0.33,0.75,0.49c0.07,0.05,0.15,0.1,0.22,0.15c0.39,0.26,0.77,0.52,1.16,0.79 c0.3,0.2,0.59,0.41,0.88,0.61c0.4,0.28,0.79,0.57,1.18,0.86c0.27,0.2,0.55,0.4,0.82,0.6c0.4,0.3,0.8,0.61,1.2,0.92 c0.24,0.19,0.49,0.38,0.73,0.57c0.44,0.35,0.86,0.7,1.29,1.05c0.14,0.12,0.28,0.23,0.42,0.34c0.18,0.15,0.35,0.3,0.53,0.45 c0.39,0.33,0.77,0.65,1.15,0.98c0.22,0.19,0.43,0.38,0.65,0.58c0.35,0.31,0.69,0.62,1.03,0.93c0.2,0.18,0.39,0.36,0.59,0.54 c0.07,0.06,0.13,0.12,0.2,0.19c0.29,0.27,0.58,0.54,0.86,0.82c0.15,0.15,0.3,0.29,0.45,0.44c0.14,0.14,0.28,0.28,0.42,0.42 c0.27,0.27,0.54,0.53,0.8,0.8c0.07,0.07,0.15,0.15,0.22,0.22c0.19,0.19,0.38,0.39,0.56,0.58c0.3,0.31,0.6,0.62,0.89,0.94 c0.2,0.22,0.4,0.44,0.61,0.66c0.28,0.31,0.56,0.61,0.84,0.92c0.2,0.22,0.39,0.44,0.59,0.66c0.27,0.3,0.53,0.61,0.79,0.91 c0.19,0.22,0.38,0.44,0.56,0.66c0.26,0.31,0.51,0.61,0.76,0.91c0.18,0.22,0.35,0.43,0.53,0.65c0.25,0.31,0.49,0.62,0.73,0.92 c0.16,0.21,0.33,0.42,0.49,0.63c0.24,0.31,0.48,0.63,0.71,0.94c0.15,0.2,0.3,0.4,0.45,0.6c0.24,0.33,0.48,0.66,0.72,0.99 c0.11,0.16,0.23,0.31,0.33,0.47c0.07,0.09,0.13,0.19,0.2,0.28c0.21,0.3,0.41,0.59,0.61,0.88c0.05,0.07,0.1,0.15,0.15,0.22 c0.11,0.16,0.22,0.32,0.32,0.48c0.21,0.31,0.42,0.62,0.62,0.93c0.12,0.18,0.23,0.35,0.34,0.53c0.2,0.31,0.39,0.61,0.59,0.92 c0.09,0.15,0.19,0.3,0.28,0.45c0.05,0.08,0.09,0.15,0.14,0.23c0.17,0.27,0.33,0.54,0.49,0.8c0.05,0.09,0.11,0.18,0.16,0.27 c0.09,0.15,0.17,0.29,0.26,0.44c0.17,0.29,0.35,0.58,0.51,0.87c0.11,0.18,0.21,0.36,0.31,0.55c0.15,0.27,0.3,0.54,0.45,0.8 c0.1,0.19,0.2,0.37,0.31,0.56c0.14,0.25,0.28,0.5,0.41,0.75c0.1,0.18,0.19,0.36,0.29,0.54c0.07,0.13,0.13,0.26,0.2,0.39 c-0.18,0.36-0.36,0.73-0.55,1.1c-0.36,0.72-0.72,1.45-1.08,2.18c-0.23,0.47-0.47,0.94-0.7,1.41c-0.22,0.44-0.42,0.9-0.64,1.34 c-0.35,0.72-0.69,1.45-1.03,2.17c-0.44,0.93-0.87,1.87-1.3,2.8c-0.33,0.72-0.66,1.45-0.99,2.17c-0.43,0.95-0.85,1.91-1.27,2.86 c-0.31,0.71-0.63,1.43-0.94,2.15c-0.42,0.99-0.84,1.98-1.25,2.97c-0.29,0.69-0.58,1.39-0.87,2.08c-0.02,0.06-0.05,0.11-0.07,0.16 c-0.06,0.15-0.13,0.3-0.19,0.45c-0.34,0.84-0.67,1.68-1,2.52c-0.26,0.65-0.52,1.29-0.77,1.94c-0.22,0.57-0.44,1.14-0.66,1.72 c-0.23,0.6-0.46,1.21-0.69,1.81c-0.2,0.53-0.4,1.06-0.6,1.58c-0.63,1.71-1.25,3.42-1.86,5.14c-0.79,2.26-1.56,4.53-2.3,6.81 c-0.26,0.78-0.5,1.58-0.75,2.36c-0.48,1.5-0.95,2.99-1.41,4.5c-0.29,0.95-0.56,1.91-0.84,2.86c-0.4,1.35-0.79,2.7-1.17,4.06 c-0.28,1.02-0.55,2.03-0.82,3.05c-0.35,1.31-0.7,2.62-1.03,3.93c-0.26,1.04-0.52,2.08-0.77,3.12c-0.32,1.31-0.63,2.61-0.94,3.92 c-0.24,1.04-0.48,2.09-0.71,3.13c-0.29,1.32-0.58,2.65-0.85,3.98c-0.21,1.03-0.42,2.06-0.63,3.09c-0.27,1.36-0.53,2.72-0.78,4.08 c-0.19,1.01-0.37,2.01-0.55,3.02c-0.08,0.45-0.17,0.9-0.24,1.35c-0.02,0.14-0.03,0.28-0.05,0.42c-0.25,1.5-0.52,3-0.75,4.5 c-0.59,3.82,2.03,7.4,5.85,7.99c3.82,0.59,7.4-2.03,7.99-5.85c0.31-1.99,0.65-3.98,1-5.97c0.17-0.98,0.35-1.96,0.53-2.94 c0.24-1.28,0.48-2.57,0.73-3.85c0.2-1,0.4-2,0.61-3c0.26-1.25,0.53-2.51,0.81-3.76c0.22-1.01,0.45-2.03,0.69-3.04 c0.29-1.24,0.58-2.47,0.88-3.71c0.25-1.01,0.49-2.02,0.75-3.03c0.32-1.24,0.65-2.48,0.98-3.72c0.26-0.99,0.53-1.97,0.8-2.96 c0.36-1.29,0.73-2.57,1.11-3.85c0.27-0.93,0.53-1.85,0.81-2.77c0.43-1.42,0.88-2.83,1.33-4.24c0.25-0.78,0.48-1.56,0.74-2.33 c0.69-2.12,1.41-4.23,2.14-6.34c0.02-0.06,0.04-0.11,0.06-0.17c0,0,0,0,0,0c4.79-13.67,10.61-27.1,17.28-39.91 c0.03-0.05,0.05-0.1,0.07-0.15c0.59-1.13,1.2-2.25,1.8-3.37c0.45-0.84,0.89-1.69,1.35-2.53c0.63-1.14,1.28-2.28,1.92-3.41 c0.46-0.82,0.92-1.64,1.39-2.46c0.72-1.24,1.45-2.46,2.19-3.69c0.42-0.7,0.83-1.41,1.25-2.11c1.17-1.92,2.36-3.83,3.56-5.71 c1.01-1.58,2.03-3.14,3.07-4.71c0.33-0.5,0.68-1,1.02-1.5c0.71-1.06,1.42-2.11,2.15-3.16c0.42-0.6,0.84-1.19,1.26-1.79 c0.66-0.94,1.33-1.89,2-2.83c0.46-0.64,0.93-1.27,1.39-1.9c0.65-0.89,1.3-1.78,1.97-2.67c0.49-0.65,0.99-1.3,1.48-1.95 c0.65-0.86,1.3-1.71,1.97-2.56c0.51-0.66,1.04-1.32,1.56-1.98c0.66-0.83,1.31-1.66,1.98-2.48c0.54-0.66,1.08-1.32,1.62-1.98 c0.66-0.81,1.33-1.61,2-2.41c0.56-0.66,1.12-1.32,1.68-1.98c0.43-0.5,0.86-1,1.29-1.5l2.01-0.51c0.82-0.2,1.68-0.41,2.56-0.6 c0.29-0.07,0.6-0.13,0.9-0.19c0.61-0.13,1.21-0.26,1.84-0.39c0.38-0.08,0.78-0.15,1.16-0.23c0.58-0.11,1.15-0.22,1.74-0.33 c0.43-0.08,0.88-0.15,1.32-0.23c0.58-0.1,1.16-0.2,1.75-0.3c0.47-0.08,0.95-0.15,1.43-0.22c0.6-0.09,1.19-0.19,1.8-0.28 c0.5-0.07,1.01-0.14,1.52-0.21c0.61-0.08,1.22-0.17,1.84-0.25c0.53-0.07,1.07-0.13,1.61-0.2c0.63-0.08,1.26-0.15,1.91-0.23 c0.55-0.06,1.11-0.12,1.67-0.18c0.65-0.07,1.31-0.14,1.97-0.2c0.57-0.06,1.16-0.11,1.74-0.16c0.67-0.06,1.34-0.12,2.02-0.18 c0.59-0.05,1.2-0.1,1.8-0.14c0.69-0.05,1.38-0.1,2.08-0.15c0.61-0.04,1.23-0.08,1.85-0.12c0.71-0.04,1.42-0.08,2.13-0.12 c0.63-0.03,1.27-0.07,1.9-0.1c0.72-0.03,1.45-0.06,2.18-0.09c0.65-0.02,1.29-0.05,1.95-0.07c0.74-0.02,1.49-0.04,2.24-0.06 c0.66-0.02,1.31-0.03,1.98-0.04c0.76-0.01,1.52-0.02,2.29-0.03c0.67-0.01,1.33-0.01,2-0.01c0.77,0,1.55,0,2.34,0.01 c0.67,0,1.35,0.01,2.03,0.02c0.8,0.01,1.6,0.03,2.4,0.05c0.67,0.02,1.35,0.03,2.03,0.05c0.82,0.02,1.65,0.06,2.47,0.09 c0.67,0.03,1.33,0.05,2.01,0.08c0.85,0.04,1.71,0.09,2.57,0.14c0.65,0.04,1.31,0.07,1.96,0.11c0.89,0.06,1.79,0.12,2.69,0.19 c0.63,0.05,1.25,0.09,1.88,0.14c0.98,0.08,1.97,0.17,2.95,0.26c0.55,0.05,1.09,0.09,1.64,0.15c1.36,0.13,2.72,0.28,4.08,0.44 c0.18,0.02,0.36,0.04,0.53,0.06c1.54,0.18,3.09,0.38,4.64,0.59c0.46,0.06,0.92,0.14,1.38,0.2c1.09,0.15,2.18,0.31,3.26,0.48 c0.58,0.09,1.17,0.19,1.75,0.29c0.96,0.16,1.93,0.31,2.89,0.48c0.64,0.11,1.27,0.24,1.91,0.36c0.91,0.17,1.81,0.34,2.72,0.52 c0.66,0.13,1.32,0.28,1.99,0.42c0.88,0.18,1.75,0.37,2.63,0.56c0.67,0.15,1.34,0.31,2.02,0.47c0.86,0.2,1.72,0.4,2.57,0.61 c0.68,0.17,1.36,0.35,2.03,0.52c0.84,0.22,1.68,0.44,2.52,0.67c0.68,0.19,1.36,0.38,2.04,0.58c0.83,0.24,1.65,0.48,2.48,0.73 c0.68,0.21,1.35,0.42,2.03,0.63c0.82,0.26,1.63,0.52,2.44,0.79c0.67,0.22,1.34,0.46,2.01,0.69c0.45,0.16,0.9,0.32,1.35,0.48 C402.74,288.54,378.58,311.23,353.92,330.61z M200.83,241.8c5.04-9.11,11.05-18.01,18.15-26.9c0,0,0,0,0,0 c22.53-28.21,52.4-51.55,81.72-72.95c0.36,0.66,0.71,1.33,1.06,1.99c0.11,0.21,0.21,0.42,0.32,0.63c0.25,0.48,0.49,0.96,0.73,1.45 c0.14,0.28,0.27,0.56,0.41,0.83c0.2,0.42,0.41,0.83,0.61,1.25c0.14,0.3,0.29,0.61,0.43,0.91c0.18,0.39,0.37,0.79,0.55,1.18 c0.14,0.32,0.29,0.63,0.43,0.95c0.17,0.38,0.34,0.77,0.51,1.15c0.14,0.32,0.28,0.65,0.42,0.97c0.16,0.38,0.32,0.76,0.48,1.14 c0.14,0.33,0.27,0.65,0.41,0.98c0.16,0.38,0.31,0.76,0.46,1.14c0.13,0.32,0.26,0.65,0.39,0.97c0.15,0.39,0.3,0.77,0.45,1.16 c0.12,0.32,0.25,0.63,0.37,0.95c0.15,0.41,0.3,0.81,0.45,1.21c0.11,0.29,0.22,0.59,0.33,0.88c0.19,0.52,0.37,1.03,0.56,1.55 c0.13,0.35,0.25,0.71,0.37,1.06c0.17,0.5,0.35,1,0.52,1.5c0.1,0.3,0.2,0.59,0.3,0.89c0.13,0.39,0.26,0.78,0.39,1.17 c0.1,0.32,0.2,0.63,0.3,0.95c0.12,0.37,0.23,0.73,0.35,1.09c0.1,0.32,0.2,0.64,0.3,0.96c0.11,0.35,0.22,0.71,0.32,1.06 c0.1,0.32,0.19,0.64,0.28,0.95c0.1,0.35,0.21,0.7,0.31,1.05c0.09,0.32,0.18,0.63,0.27,0.94c0.1,0.34,0.19,0.69,0.29,1.03 c0.09,0.31,0.17,0.62,0.26,0.93c0.1,0.35,0.19,0.69,0.28,1.03c0.08,0.3,0.16,0.59,0.24,0.88c0.1,0.36,0.19,0.72,0.28,1.08 c0.07,0.27,0.14,0.54,0.21,0.8c0.1,0.41,0.2,0.81,0.3,1.22c0.05,0.21,0.11,0.42,0.16,0.63c0.15,0.6,0.29,1.19,0.43,1.78 c0.05,0.21,0.1,0.42,0.15,0.63c0.09,0.38,0.18,0.76,0.26,1.14c0.06,0.24,0.11,0.48,0.16,0.72c0.08,0.34,0.15,0.68,0.23,1.01 c0.05,0.25,0.11,0.49,0.16,0.73c0.07,0.31,0.14,0.63,0.2,0.93c0.05,0.25,0.1,0.5,0.16,0.74c0.06,0.3,0.12,0.6,0.18,0.89 c0.05,0.24,0.1,0.48,0.14,0.71c0.06,0.29,0.12,0.58,0.17,0.86c0.04,0.23,0.09,0.46,0.13,0.68c0.06,0.29,0.11,0.58,0.16,0.86 c0.04,0.21,0.08,0.41,0.12,0.62c0.06,0.3,0.11,0.59,0.16,0.88c0.03,0.18,0.07,0.36,0.1,0.53c0.06,0.33,0.12,0.65,0.17,0.97 c0.02,0.13,0.05,0.26,0.07,0.39c0.08,0.44,0.15,0.87,0.22,1.29c-1.88,1.53-3.74,3.08-5.58,4.65c-2.03,1.73-4.04,3.48-6.02,5.25 c-3.04,2.71-6.02,5.46-8.95,8.26c-3.28,3.13-6.48,6.32-9.61,9.56c-3.8,3.93-7.5,7.93-11.06,11.99c0,0,0,0,0,0 c-10.7,12.22-20.5,25.25-29.11,38.73c-1.33,2.08-2.63,4.17-3.91,6.29c-0.43,0.7-0.83,1.41-1.25,2.12 c-0.85,1.42-1.69,2.84-2.52,4.28c-0.1,0.17-0.21,0.34-0.3,0.52c-0.01-0.01-0.01-0.02-0.02-0.02c-0.1-0.16-0.21-0.32-0.31-0.49 c-0.17-0.27-0.35-0.54-0.53-0.81c-0.18-0.28-0.37-0.57-0.56-0.85c-0.09-0.13-0.17-0.26-0.26-0.39c-0.11-0.16-0.22-0.32-0.32-0.48 c-0.21-0.3-0.42-0.6-0.63-0.9c-0.19-0.28-0.39-0.55-0.59-0.83c-0.02-0.03-0.05-0.07-0.07-0.1c-0.03-0.04-0.05-0.07-0.08-0.11 c-0.17-0.24-0.35-0.47-0.52-0.71c-0.2-0.28-0.41-0.56-0.61-0.84c-0.17-0.23-0.35-0.47-0.53-0.7c-0.13-0.17-0.26-0.34-0.39-0.52 c-0.14-0.19-0.28-0.38-0.43-0.56c-0.26-0.33-0.53-0.67-0.79-1c-0.21-0.26-0.41-0.52-0.62-0.78c-0.01-0.01-0.02-0.02-0.03-0.04 c-0.34-0.42-0.69-0.84-1.05-1.26c-0.29-0.35-0.59-0.7-0.89-1.05c-0.16-0.19-0.33-0.38-0.5-0.58c-0.19-0.22-0.38-0.44-0.58-0.67 c-0.24-0.27-0.48-0.53-0.72-0.8c-0.24-0.27-0.49-0.54-0.74-0.81c-0.02-0.02-0.04-0.04-0.06-0.06c-0.04-0.04-0.08-0.09-0.12-0.13 c-0.26-0.28-0.53-0.56-0.8-0.85c-0.3-0.32-0.61-0.64-0.92-0.96c-0.16-0.17-0.33-0.34-0.5-0.51c-0.15-0.15-0.3-0.3-0.45-0.45 c-0.28-0.28-0.56-0.57-0.85-0.85c-0.29-0.29-0.6-0.58-0.9-0.87c-0.2-0.19-0.39-0.38-0.59-0.57c-0.02-0.01-0.03-0.03-0.05-0.04 c-0.11-0.11-0.23-0.21-0.34-0.32c-0.31-0.29-0.62-0.57-0.94-0.86c-0.34-0.31-0.68-0.62-1.02-0.92c-0.17-0.15-0.33-0.3-0.5-0.45 c-0.04-0.04-0.09-0.08-0.14-0.12c-0.11-0.1-0.22-0.19-0.33-0.29c-0.35-0.3-0.7-0.61-1.06-0.91c-0.33-0.28-0.67-0.57-1.01-0.85 c-0.15-0.13-0.3-0.25-0.45-0.38c-0.01-0.01-0.03-0.02-0.04-0.03c-0.2-0.17-0.42-0.33-0.62-0.5c-0.35-0.28-0.69-0.55-1.05-0.83 c-0.38-0.3-0.77-0.59-1.16-0.89c-0.16-0.12-0.32-0.24-0.48-0.37c-0.2-0.15-0.41-0.3-0.62-0.46c-0.4-0.3-0.82-0.59-1.23-0.89 c-0.37-0.26-0.73-0.52-1.1-0.78c-0.09-0.06-0.18-0.13-0.27-0.19c-0.01-0.01-0.02-0.02-0.03-0.02c-0.33-0.23-0.67-0.45-1.01-0.68 c-0.37-0.25-0.73-0.5-1.11-0.75c-0.34-0.22-0.69-0.44-1.03-0.66c-0.24-0.16-0.48-0.31-0.73-0.46c-0.25-0.16-0.5-0.32-0.75-0.47 c-0.54-0.33-1.09-0.66-1.64-0.98c-0.32-0.19-0.64-0.39-0.96-0.57c-0.02-0.01-0.03-0.02-0.05-0.03c-0.01,0-0.01-0.01-0.02-0.01 c-0.86-0.5-1.73-0.98-2.61-1.46c-0.17-0.09-0.34-0.18-0.51-0.27c-0.12-0.07-0.25-0.13-0.37-0.2c-0.3-0.16-0.6-0.31-0.9-0.47 c-0.34-0.18-0.67-0.36-1.02-0.53c-0.35-0.18-0.71-0.34-1.06-0.52c-0.54-0.26-1.06-0.53-1.61-0.79 C197.58,247.9,199.15,244.84,200.83,241.8z"></path> <path class="st1" d="M357.63,98.6c1.52,0,3.04-0.49,4.33-1.5l0.29-0.23c3.03-2.4,3.54-6.8,1.14-9.83 c-2.4-3.03-6.81-3.54-9.83-1.14l-0.26,0.21c-3.04,2.39-3.56,6.79-1.17,9.83C353.51,97.69,355.56,98.6,357.63,98.6z"></path> <path class="st1" d="M390.11,132.11c0.38,0.25,0.79,0.47,1.21,0.65c0.42,0.17,0.86,0.3,1.31,0.4c0.45,0.09,0.91,0.13,1.37,0.13 c1.84,0,3.65-0.75,4.95-2.05c1.3-1.3,2.05-3.1,2.05-4.95c0-0.45-0.05-0.91-0.14-1.37c-0.09-0.44-0.22-0.88-0.4-1.31 c-0.17-0.42-0.39-0.82-0.64-1.2c-0.26-0.39-0.55-0.75-0.87-1.07c-1.63-1.62-4.04-2.37-6.32-1.91c-0.45,0.09-0.89,0.22-1.31,0.4 c-0.42,0.17-0.83,0.39-1.21,0.64c-0.38,0.26-0.74,0.55-1.06,0.87s-0.62,0.68-0.87,1.07c-0.25,0.38-0.47,0.78-0.65,1.2 c-0.17,0.43-0.3,0.87-0.39,1.31c-0.1,0.46-0.14,0.92-0.14,1.37c0,1.85,0.75,3.65,2.05,4.95 C389.37,131.56,389.73,131.86,390.11,132.11z"></path> </g> </g> </g></svg>